<svg width="17" height="17" viewBox="0 0 17 17" fill="none" xmlns="http://www.w3.org/2000/svg">
<path d="M0 6.26437C0.0186992 5.78348 0.0923958 5.31851 0.240889 4.85991C0.359684 4.49366 0.570874 4.18368 0.822763 3.89918C0.982256 3.71871 1.16155 3.55204 1.34634 3.39599C1.77092 3.03824 2.3011 3.04355 2.70258 3.42359C3.39775 4.08071 4.07532 4.75375 4.77049 5.4098C5.16867 5.7856 5.13237 6.38009 4.77709 6.72404C4.4185 7.07011 4.05992 7.41512 3.69803 7.75695C3.64194 7.80897 3.62764 7.84719 3.67053 7.91407C3.93232 8.32702 4.18091 8.7474 4.4526 9.15399C5.19067 10.257 6.13332 11.1678 7.27617 11.8822C7.65896 12.1211 8.05824 12.3366 8.44542 12.5712C8.54222 12.6296 8.60161 12.6211 8.67971 12.5457C9.0042 12.2294 9.33528 11.9194 9.66087 11.6041C9.93145 11.3419 10.2438 11.1912 10.6354 11.2771C10.7476 11.3016 10.8587 11.3536 10.9577 11.4141C11.0567 11.4746 11.1447 11.5563 11.2283 11.636C11.8663 12.2485 12.5053 12.8589 13.1378 13.4767C13.5866 13.9141 13.5866 14.413 13.1653 14.8727C12.6714 15.412 12.0731 15.7899 11.3504 15.9746C10.9566 16.0755 10.554 16.0659 10.1514 16.0298C9.08669 15.9332 8.10884 15.5702 7.17388 15.0988C5.70544 14.3578 4.4581 13.3387 3.31415 12.1943C2.56178 11.4417 1.84682 10.6593 1.24734 9.78563C0.711668 9.00537 0.291487 8.17415 0.117695 7.24633C0.0571974 6.92255 0.0395982 6.5924 0.0021999 6.26543L0 6.26437Z" fill="#565ADD"/>
<path d="M17 9.41726H15.7736C14.9728 5.0202 11.2143 1.63589 6.60657 1.17304V7.30157e-07C11.8786 0.473465 16.1805 4.37052 17 9.41726Z" fill="#565ADD"/>
<path d="M14.712 9.41702H13.4767C12.7255 6.21211 9.98879 3.7949 6.60645 3.36178V2.18555C10.6554 2.63672 13.9299 5.55712 14.712 9.41702Z" fill="#565ADD"/>
<path d="M12.1195 9.41726H10.8535C10.2078 7.58285 8.57988 6.20599 6.60657 5.83125V4.64547C9.24425 5.05417 11.4122 6.92892 12.1195 9.41726Z" fill="#565ADD"/>
<path d="M9.68533 9.41726H8.33019C7.93531 8.7973 7.32373 8.32596 6.60657 8.09453V6.88115C7.9892 7.1975 9.14195 8.14549 9.68533 9.41726Z" fill="#565ADD"/>
</svg>
