<svg width="24" height="24" fill="none" xmlns="http://www.w3.org/2000/svg"><rect width="24" height="24" rx="12" fill="#178733" fill-opacity=".1"/><path fill-rule="evenodd" clip-rule="evenodd" d="M8.276 7.977c.08.058.17.086.265.086.14 0 .274-.064.377-.172l.9-1.174a.422.422 0 0 0-.021-.545l-.901-1.017a.457.457 0 0 0-.635-.05.425.425 0 0 0-.052.616l.165.186H6.732c-.76 0-1.374.595-1.374 1.332v9.269c0 .83.702 1.51 1.558 1.51h4.696a.6.6 0 0 0 .606-.586.587.587 0 0 0-.598-.58H6.925a.357.357 0 0 1-.362-.352V7.232a.17.17 0 0 1 .17-.164h1.685l-.231.3a.42.42 0 0 0 .089.61Zm8.791 10.042h-1.406l.214.28a.426.426 0 0 1-.089.608.504.504 0 0 1-.28.093.436.436 0 0 1-.362-.179l-.9-1.175a.422.422 0 0 1 .021-.544l.901-1.017a.457.457 0 0 1 .635-.05c.192.157.207.43.052.616l-.183.207h1.405c.199 0 .361-.157.361-.35V7.238a.17.17 0 0 0-.17-.165h-4.865a.587.587 0 0 1-.598-.58c0-.322.265-.58.598-.58h4.866c.76 0 1.373.595 1.373 1.332v9.269c-.015.823-.709 1.504-1.573 1.504Zm-8.402-7.621h5.715a.587.587 0 0 0 .598-.58.587.587 0 0 0-.598-.58H8.665a.587.587 0 0 0-.598.58c0 .322.265.58.598.58Zm0 2.098h5.715a.587.587 0 0 0 .598-.58.587.587 0 0 0-.598-.58H8.665a.587.587 0 0 0-.598.58c0 .322.265.58.598.58Zm2.813 2.099H8.665a.587.587 0 0 1-.598-.58c0-.323.265-.58.598-.58h2.813c.332 0 .598.257.598.58 0 .315-.266.58-.598.58Z" fill="#2DA74C"/></svg>