<svg width="158" height="161" viewBox="0 0 158 161" fill="none" xmlns="http://www.w3.org/2000/svg">
<path d="M154 2L153 9" stroke="#85D8CE" stroke-miterlimit="10"/>
<path d="M140 2L134 8" stroke="#85D8CE" stroke-miterlimit="10"/>
<path d="M123 3L117 8" stroke="#85D8CE" stroke-miterlimit="10"/>
<path d="M107 3L100 7" stroke="#85D8CE" stroke-miterlimit="10"/>
<path d="M91 3L83 7" stroke="#85D8CE" stroke-miterlimit="10"/>
<path d="M75 3L67 7" stroke="#85D8CE" stroke-miterlimit="10"/>
<path d="M58 2L51 7" stroke="#85D8CE" stroke-miterlimit="10"/>
<path d="M41 2L35 8" stroke="#85D8CE" stroke-miterlimit="10"/>
<path d="M23 2C23 2 19.7615 4.89263 19 8L23 2Z" fill="white"/>
<path d="M23 2C23 2 19.7615 4.89263 19 8" stroke="#85D8CE" stroke-miterlimit="10"/>
<path d="M7 1C7 1 3.12077 4.2 3 9" stroke="#85D8CE" stroke-miterlimit="10"/>
<path d="M5 18L3 25" stroke="#85D8CE" stroke-miterlimit="10"/>
<path d="M4 35V42" stroke="#85D8CE" stroke-miterlimit="10"/>
<path d="M4 52C4.15507 54.4726 4.49441 56.848 5 59" stroke="#85D8CE" stroke-miterlimit="10"/>
<path d="M2 69C2.74933 71.2273 4.11864 73.2812 6 75" stroke="#85D8CE" stroke-miterlimit="10"/>
<path d="M2 86L6 92" stroke="#85D8CE" stroke-miterlimit="10"/>
<path d="M2 103L6 108" stroke="#85D8CE" stroke-miterlimit="10"/>
<path d="M1 120L6 125" stroke="#85D8CE" stroke-miterlimit="10"/>
<path d="M1 137L7 142" stroke="#85D8CE" stroke-miterlimit="10"/>
<path d="M1 153L6 158" stroke="#85D8CE" stroke-miterlimit="10"/>
<path d="M23 18C23 18 20.43 21.1281 20 25L23 18Z" fill="white"/>
<path d="M23 18C23 18 20.43 21.1281 20 25" stroke="#85D8CE" stroke-miterlimit="10"/>
<path d="M21 35L20 41" stroke="#85D8CE" stroke-miterlimit="10"/>
<path d="M21 52V59" stroke="#85D8CE" stroke-miterlimit="10"/>
<path d="M37 69V77" stroke="#85D8CE" stroke-miterlimit="10"/>
<path d="M37 85V93" stroke="#85D8CE" stroke-miterlimit="10"/>
<path d="M37 102V109" stroke="#85D8CE" stroke-miterlimit="10"/>
<path d="M37 119V126" stroke="#85D8CE" stroke-miterlimit="10"/>
<path d="M37 136V143" stroke="#85D8CE" stroke-miterlimit="10"/>
<path d="M37 152V160" stroke="#85D8CE" stroke-miterlimit="10"/>
<path d="M19 85C19 85 20.2833 89.4621 22 92L19 85Z" fill="white"/>
<path d="M19 85C19 85 20.2833 89.4621 22 92" stroke="#85D8CE" stroke-miterlimit="10"/>
<path d="M19 102C19 102 20.3567 106.244 22 109L19 102Z" fill="white"/>
<path d="M19 102C19 102 20.3567 106.244 22 109" stroke="#85D8CE" stroke-miterlimit="10"/>
<path d="M19 119C19 119 19.5234 122.38 23 126L19 119Z" fill="white"/>
<path d="M19 119C19 119 19.5234 122.38 23 126" stroke="#85D8CE" stroke-miterlimit="10"/>
<path d="M19 136C19 136 20.2182 141.001 22 143L19 136Z" fill="white"/>
<path d="M19 136C19 136 20.2182 141.001 22 143" stroke="#85D8CE" stroke-miterlimit="10"/>
<path d="M19 152C19 152 19.9723 156.269 22 159L19 152Z" fill="white"/>
<path d="M19 152C19 152 19.9723 156.269 22 159" stroke="#85D8CE" stroke-miterlimit="10"/>
<path d="M40 18L35 25" stroke="#85D8CE" stroke-miterlimit="10"/>
<path d="M40 35L36 42" stroke="#85D8CE" stroke-miterlimit="10"/>
<path d="M38 52L36 59" stroke="#85D8CE" stroke-miterlimit="10"/>
<path d="M51 24L57 19" stroke="#85D8CE" stroke-miterlimit="10"/>
<path d="M67 24L73 19" stroke="#85D8CE" stroke-miterlimit="10"/>
<path d="M83 24L91 19" stroke="#85D8CE" stroke-miterlimit="10"/>
<path d="M100 25L107 19" stroke="#85D8CE" stroke-miterlimit="10"/>
<path d="M117 25L123 18" stroke="#85D8CE" stroke-miterlimit="10"/>
<path d="M136 25L139 18" stroke="#85D8CE" stroke-miterlimit="10"/>
<path d="M153.127 18C152.802 20.3624 153.101 22.7601 154 25L153.127 18Z" fill="white"/>
<path d="M153.127 18C152.802 20.3624 153.101 22.7601 154 25" stroke="#85D8CE" stroke-miterlimit="10"/>
<path d="M51 42L56 36" stroke="#85D8CE" stroke-miterlimit="10"/>
<path d="M74 36L68 41" stroke="#85D8CE" stroke-miterlimit="10"/>
<path d="M90 36L84 41" stroke="#85D8CE" stroke-miterlimit="10"/>
<path d="M107 35L101 41" stroke="#85D8CE" stroke-miterlimit="10"/>
<path d="M123 35L118 42" stroke="#85D8CE" stroke-miterlimit="10"/>
<path d="M138 35L137 42" stroke="#85D8CE" stroke-miterlimit="10"/>
<path d="M153.032 35C153.032 35 152.588 38.0436 155 42L153.032 35Z" fill="white"/>
<path d="M153.032 35C153.032 35 152.588 38.0436 155 42" stroke="#85D8CE" stroke-miterlimit="10"/>
<path d="M52 59L56 52" stroke="#85D8CE" stroke-miterlimit="10"/>
<path d="M68 59L73 52" stroke="#85D8CE" stroke-miterlimit="10"/>
<path d="M84 59L90 52" stroke="#85D8CE" stroke-miterlimit="10"/>
<path d="M101 60L105 53" stroke="#85D8CE" stroke-miterlimit="10"/>
<path d="M121 52L119 59" stroke="#85D8CE" stroke-miterlimit="10"/>
<path d="M151 52L155 58" stroke="#85D8CE" stroke-miterlimit="10"/>
<path d="M137 52V59" stroke="#85D8CE" stroke-miterlimit="10"/>
<path d="M52 75L55 69" stroke="#85D8CE" stroke-miterlimit="10"/>
<path d="M68 75L73 69" stroke="#85D8CE" stroke-miterlimit="10"/>
<path d="M84 75L90 68" stroke="#85D8CE" stroke-miterlimit="10"/>
<path d="M102 75L105 69" stroke="#85D8CE" stroke-miterlimit="10"/>
<path d="M119 76L121 68" stroke="#85D8CE" stroke-miterlimit="10"/>
<path d="M139 76L135 69" stroke="#85D8CE" stroke-miterlimit="10"/>
<path d="M150 69L155 74" stroke="#85D8CE" stroke-miterlimit="10"/>
<path d="M55 85L52 92" stroke="#85D8CE" stroke-miterlimit="10"/>
<path d="M73 85L68 92" stroke="#85D8CE" stroke-miterlimit="10"/>
<path d="M90 85L85 92" stroke="#85D8CE" stroke-miterlimit="10"/>
<path d="M106 85L102 92" stroke="#85D8CE" stroke-miterlimit="10"/>
<path d="M121 85L119 93" stroke="#85D8CE" stroke-miterlimit="10"/>
<path d="M135 85L139 92" stroke="#85D8CE" stroke-miterlimit="10"/>
<path d="M150 85L157 91" stroke="#85D8CE" stroke-miterlimit="10"/>
<path d="M52 109L55 102" stroke="#85D8CE" stroke-miterlimit="10"/>
<path d="M68 110L73 102" stroke="#85D8CE" stroke-miterlimit="10"/>
<path d="M85 109L88 102" stroke="#85D8CE" stroke-miterlimit="10"/>
<path d="M102 110L106 102" stroke="#85D8CE" stroke-miterlimit="10"/>
<path d="M120 109V102" stroke="#85D8CE" stroke-miterlimit="10"/>
<path d="M135 102L138 109" stroke="#85D8CE" stroke-miterlimit="10"/>
<path d="M150 102L157 109" stroke="#85D8CE" stroke-miterlimit="10"/>
<path d="M55 119L52 126" stroke="#85D8CE" stroke-miterlimit="10"/>
<path d="M73 119L68 126" stroke="#85D8CE" stroke-miterlimit="10"/>
<path d="M90 119L85 126" stroke="#85D8CE" stroke-miterlimit="10"/>
<path d="M106 119L102 126" stroke="#85D8CE" stroke-miterlimit="10"/>
<path d="M121 119L119 126" stroke="#85D8CE" stroke-miterlimit="10"/>
<path d="M135 119L138 126" stroke="#85D8CE" stroke-miterlimit="10"/>
<path d="M150 119L156 126" stroke="#85D8CE" stroke-miterlimit="10"/>
<path d="M55 135L52 143" stroke="#85D8CE" stroke-miterlimit="10"/>
<path d="M73 136L68 143" stroke="#85D8CE" stroke-miterlimit="10"/>
<path d="M92 135L85 142" stroke="#85D8CE" stroke-miterlimit="10"/>
<path d="M108 135L101 143" stroke="#85D8CE" stroke-miterlimit="10"/>
<path d="M122 134L119 142" stroke="#85D8CE" stroke-miterlimit="10"/>
<path d="M137 134V142" stroke="#85D8CE" stroke-miterlimit="10"/>
<path d="M151 135L155 142" stroke="#85D8CE" stroke-miterlimit="10"/>
<path d="M56 152L52 160" stroke="#85D8CE" stroke-miterlimit="10"/>
<path d="M74 152L68 158" stroke="#85D8CE" stroke-miterlimit="10"/>
<path d="M92 152L84 158" stroke="#85D8CE" stroke-miterlimit="10"/>
<path d="M108 151L101 158" stroke="#85D8CE" stroke-miterlimit="10"/>
<path d="M124 152L117 160" stroke="#85D8CE" stroke-miterlimit="10"/>
<path d="M139 150L136 160" stroke="#85D8CE" stroke-miterlimit="10"/>
</svg>
