<svg width="151" height="28" viewBox="0 0 151 28" fill="none" xmlns="http://www.w3.org/2000/svg">
<rect width="28" height="28" fill="#00B67A"/>
<path d="M25.8166 11.6542H16.8037L14.0293 3.06445L11.2384 11.6542L2.22559 11.6378L9.51466 16.9529L6.7238 25.5426L14.0129 20.2275L21.3019 25.5426L18.5275 16.9529L25.8166 11.6542Z" fill="white"/>
<path d="M19.3624 18.7105L18.739 16.863L14.2437 19.9788L19.3624 18.7105Z" fill="#00B67A"/>
<rect x="30.6667" width="28" height="28" fill="#00B67A"/>
<path d="M57.195 11.6542H48.1822L45.4077 3.06445L42.6169 11.6542L33.604 11.6378L40.8931 16.9529L38.1022 25.5426L45.3913 20.2275L52.6804 25.5426L49.9059 16.9529L57.195 11.6542Z" fill="white"/>
<path d="M50.7409 18.7105L50.1175 16.863L45.6221 19.9788L50.7409 18.7105Z" fill="#00B67A"/>
<rect x="92" width="28" height="28" fill="#00B67A"/>
<path d="M117.285 11.6542H108.272L105.498 3.06445L102.707 11.6542L93.6942 11.6378L100.983 16.9529L98.1925 25.5426L105.482 20.2275L112.771 25.5426L109.996 16.9529L117.285 11.6542Z" fill="white"/>
<path d="M110.831 18.7105L110.208 16.863L105.712 19.9788L110.831 18.7105Z" fill="#00B67A"/>
<rect x="61.3333" width="28" height="28" fill="#00B67A"/>
<path d="M86.6185 11.6542H77.6057L74.8312 3.06445L72.0404 11.6542L63.0275 11.6378L70.3166 16.9529L67.5257 25.5426L74.8148 20.2275L82.1039 25.5426L79.3294 16.9529L86.6185 11.6542Z" fill="white"/>
<path d="M80.1644 18.7105L79.5409 16.863L75.0456 19.9788L80.1644 18.7105Z" fill="#00B67A"/>
<rect x="122.667" width="28" height="28" fill="#00B67A"/>
<path d="M148.664 11.6542H139.651L136.876 3.06445L134.085 11.6542L125.073 11.6378L132.362 16.9529L129.571 25.5426L136.86 20.2275L144.149 25.5426L141.375 16.9529L148.664 11.6542Z" fill="white"/>
<path d="M142.209 18.7105L141.586 16.863L137.091 19.9788L142.209 18.7105Z" fill="#00B67A"/>
</svg>
