<svg width="71" height="20" viewBox="0 0 71 20" fill="none" xmlns="http://www.w3.org/2000/svg">
<path d="M26.876 5.214L23.166 15H22.046L18.336 5.214H19.4L22.606 13.936L25.84 5.214H26.876ZM35.2645 10.786C35.2645 11.122 35.2552 11.3787 35.2365 11.556H28.8945C28.9225 12.1347 29.0625 12.6293 29.3145 13.04C29.5665 13.4507 29.8978 13.7633 30.3085 13.978C30.7192 14.1833 31.1672 14.286 31.6525 14.286C32.2872 14.286 32.8192 14.132 33.2485 13.824C33.6872 13.516 33.9765 13.1007 34.1165 12.578H35.1525C34.9658 13.3247 34.5645 13.936 33.9485 14.412C33.3418 14.8787 32.5765 15.112 31.6525 15.112C30.9338 15.112 30.2898 14.9533 29.7205 14.636C29.1512 14.3093 28.7032 13.852 28.3765 13.264C28.0592 12.6667 27.9005 11.9713 27.9005 11.178C27.9005 10.3847 28.0592 9.68933 28.3765 9.092C28.6938 8.49467 29.1372 8.03733 29.7065 7.72C30.2758 7.40267 30.9245 7.244 31.6525 7.244C32.3805 7.244 33.0152 7.40267 33.5565 7.72C34.1072 8.03733 34.5272 8.46667 34.8165 9.008C35.1152 9.54 35.2645 10.1327 35.2645 10.786ZM34.2705 10.758C34.2798 10.1887 34.1632 9.70333 33.9205 9.302C33.6872 8.90067 33.3652 8.59733 32.9545 8.392C32.5438 8.18667 32.0958 8.084 31.6105 8.084C30.8825 8.084 30.2618 8.31733 29.7485 8.784C29.2352 9.25067 28.9505 9.90867 28.8945 10.758H34.2705ZM38.0375 8.714C38.2522 8.238 38.5788 7.86933 39.0175 7.608C39.4655 7.34667 40.0115 7.216 40.6555 7.216V8.238H40.3895C39.6802 8.238 39.1108 8.42933 38.6815 8.812C38.2522 9.19467 38.0375 9.834 38.0375 10.73V15H37.0575V7.356H38.0375V8.714ZM42.6198 5.914C42.4238 5.914 42.2558 5.844 42.1158 5.704C41.9758 5.564 41.9058 5.39133 41.9058 5.186C41.9058 4.98067 41.9758 4.81267 42.1158 4.682C42.2558 4.542 42.4238 4.472 42.6198 4.472C42.8158 4.472 42.9838 4.542 43.1238 4.682C43.2638 4.81267 43.3338 4.98067 43.3338 5.186C43.3338 5.39133 43.2638 5.564 43.1238 5.704C42.9838 5.844 42.8158 5.914 42.6198 5.914ZM43.1098 7.356V15H42.1298V7.356H43.1098ZM48.339 8.182H46.561V15H45.581V8.182H44.517V7.356H45.581V6.824C45.581 5.99333 45.791 5.382 46.211 4.99C46.6403 4.598 47.331 4.402 48.283 4.402V5.242C47.6483 5.242 47.2003 5.36333 46.939 5.606C46.687 5.84867 46.561 6.25467 46.561 6.824V7.356H48.339V8.182ZM50.3717 5.914C50.1757 5.914 50.0077 5.844 49.8677 5.704C49.7277 5.564 49.6577 5.39133 49.6577 5.186C49.6577 4.98067 49.7277 4.81267 49.8677 4.682C50.0077 4.542 50.1757 4.472 50.3717 4.472C50.5677 4.472 50.7357 4.542 50.8757 4.682C51.0157 4.81267 51.0857 4.98067 51.0857 5.186C51.0857 5.39133 51.0157 5.564 50.8757 5.704C50.7357 5.844 50.5677 5.914 50.3717 5.914ZM50.8617 7.356V15H49.8817V7.356H50.8617ZM59.9969 10.786C59.9969 11.122 59.9876 11.3787 59.9689 11.556H53.6269C53.6549 12.1347 53.7949 12.6293 54.0469 13.04C54.2989 13.4507 54.6303 13.7633 55.0409 13.978C55.4516 14.1833 55.8996 14.286 56.3849 14.286C57.0196 14.286 57.5516 14.132 57.9809 13.824C58.4196 13.516 58.7089 13.1007 58.8489 12.578H59.8849C59.6983 13.3247 59.2969 13.936 58.6809 14.412C58.0743 14.8787 57.3089 15.112 56.3849 15.112C55.6663 15.112 55.0223 14.9533 54.4529 14.636C53.8836 14.3093 53.4356 13.852 53.1089 13.264C52.7916 12.6667 52.6329 11.9713 52.6329 11.178C52.6329 10.3847 52.7916 9.68933 53.1089 9.092C53.4263 8.49467 53.8696 8.03733 54.4389 7.72C55.0083 7.40267 55.6569 7.244 56.3849 7.244C57.1129 7.244 57.7476 7.40267 58.2889 7.72C58.8396 8.03733 59.2596 8.46667 59.5489 9.008C59.8476 9.54 59.9969 10.1327 59.9969 10.786ZM59.0029 10.758C59.0123 10.1887 58.8956 9.70333 58.6529 9.302C58.4196 8.90067 58.0976 8.59733 57.6869 8.392C57.2763 8.18667 56.8283 8.084 56.3429 8.084C55.6149 8.084 54.9943 8.31733 54.4809 8.784C53.9676 9.25067 53.6829 9.90867 53.6269 10.758H59.0029ZM61.3419 11.164C61.3419 10.38 61.5006 9.694 61.8179 9.106C62.1353 8.50867 62.5693 8.05133 63.1199 7.734C63.6799 7.40733 64.3099 7.244 65.0099 7.244C65.6819 7.244 66.2886 7.40733 66.8299 7.734C67.3713 8.06067 67.7679 8.48533 68.0199 9.008V4.64H68.9999V15H68.0199V13.292C67.7866 13.824 67.4039 14.2627 66.8719 14.608C66.3399 14.944 65.7146 15.112 64.9959 15.112C64.2959 15.112 63.6659 14.9487 63.1059 14.622C62.5553 14.2953 62.1213 13.8333 61.8039 13.236C61.4959 12.6387 61.3419 11.948 61.3419 11.164ZM68.0199 11.178C68.0199 10.562 67.8939 10.0207 67.6419 9.554C67.3899 9.08733 67.0446 8.728 66.6059 8.476C66.1766 8.224 65.7006 8.098 65.1779 8.098C64.6366 8.098 64.1513 8.21933 63.7219 8.462C63.2926 8.70467 62.9519 9.05933 62.6999 9.526C62.4573 9.98333 62.3359 10.5293 62.3359 11.164C62.3359 11.7893 62.4573 12.34 62.6999 12.816C62.9519 13.2827 63.2926 13.642 63.7219 13.894C64.1513 14.1367 64.6366 14.258 65.1779 14.258C65.7006 14.258 66.1766 14.132 66.6059 13.88C67.0446 13.628 67.3899 13.2687 67.6419 12.802C67.8939 12.3353 68.0199 11.794 68.0199 11.178Z" fill="black"/>
<circle cx="7" cy="10" r="7" fill="#CECECE"/>
<path d="M3 10.5L5.66667 13L11 8" stroke="white" stroke-linecap="round" stroke-linejoin="round"/>
</svg>
