<svg width="14" height="27" viewBox="0 0 14 27" fill="none" xmlns="http://www.w3.org/2000/svg">
<path d="M0.00304513 14.2153C0.00304513 16.676 -0.00380642 19.1374 0.00304513 21.5989C0.00989668 24.0604 1.54236 26.1618 3.78967 26.8011C7.12942 27.751 10.3367 25.1891 10.3451 21.5526C10.3532 17.1301 10.3532 12.7077 10.3451 8.2852C10.3484 8.01097 10.3229 7.73719 10.2689 7.46863C9.88069 5.67548 8.33225 4.53574 6.58434 4.74125C4.93312 4.935 3.66025 6.42459 3.65644 8.20754C3.64731 12.0613 3.65644 15.9151 3.65644 19.7689C3.65644 19.9548 3.65644 20.1415 3.65644 20.3274C3.6671 20.9353 4.03708 21.3424 4.57455 21.3416C5.11202 21.3408 5.47819 20.9337 5.47819 20.3219C5.47819 16.3308 5.47819 12.3398 5.47819 8.34873C5.47819 7.8122 5.60761 7.33764 6.01718 6.98308C6.21999 6.794 6.47053 6.66783 6.73992 6.61912C7.00931 6.5704 7.28658 6.60113 7.53975 6.70776C8.07874 6.91484 8.40381 7.32901 8.49973 7.92045C8.52013 8.04617 8.53032 8.17342 8.53018 8.30088C8.53018 12.7328 8.53018 17.1649 8.53018 21.5973C8.53018 23.2956 7.43241 24.702 5.87939 25.0385C5.39413 25.1464 4.8916 25.1412 4.40855 25.0232C3.92549 24.9053 3.47411 24.6777 3.08739 24.357C2.70067 24.0362 2.38839 23.6305 2.17337 23.1695C1.95835 22.7085 1.84602 22.2037 1.84459 21.6922C1.82124 16.8478 1.82124 12.0035 1.84459 7.15958C1.85367 5.85678 2.32765 4.60296 3.1762 3.63707C4.02475 2.67119 5.18854 2.06075 6.44579 1.9221C9.05851 1.62874 11.4505 3.39129 12.0427 6.07082C12.1339 6.51167 12.178 6.96144 12.1744 7.41215C12.1843 11.04 12.1798 14.6687 12.1813 18.2966C12.1736 18.4629 12.1856 18.6297 12.2171 18.7931C12.2708 18.9875 12.3852 19.1583 12.5427 19.279C12.7001 19.3997 12.8918 19.4635 13.088 19.4606C13.2834 19.4619 13.4738 19.3965 13.6295 19.2748C13.7852 19.1531 13.8975 18.9818 13.949 18.7876C13.9822 18.6448 13.9975 18.4983 13.9947 18.3515C13.9947 14.6742 14.0038 10.9969 13.9947 7.3196C13.9863 3.82193 11.774 0.961209 8.49212 0.17602C4.63622 -0.745656 0.661557 2.05859 0.0997296 6.10141C0.039515 6.53797 0.00848069 6.97827 0.00685062 7.41921C-0.0015235 9.68458 0.00304513 11.9499 0.00304513 14.2153Z" fill="#2B1C50"/>
</svg>
