<svg width="254" height="281" viewBox="0 0 254 281" fill="none" xmlns="http://www.w3.org/2000/svg">
<rect width="254" height="281" rx="4" fill="#565ADD"/>
<path d="M68.038 21.996C68.5073 22.0913 68.8813 22.315 69.16 22.667C69.446 23.0117 69.589 23.4187 69.589 23.888C69.589 24.5407 69.369 25.0577 68.929 25.439C68.4963 25.813 67.8657 26 67.037 26H63.704V18.234H66.971C67.7557 18.234 68.357 18.4063 68.775 18.751C69.2003 19.0957 69.413 19.5797 69.413 20.203C69.413 20.687 69.2847 21.083 69.028 21.391C68.7787 21.699 68.4487 21.9007 68.038 21.996ZM65.255 21.49H66.652C67.0407 21.49 67.334 21.4057 67.532 21.237C67.7373 21.061 67.84 20.8117 67.84 20.489C67.84 20.1663 67.741 19.917 67.543 19.741C67.345 19.565 67.0407 19.477 66.63 19.477H65.255V21.49ZM66.729 24.735C67.1397 24.735 67.455 24.647 67.675 24.471C67.895 24.2877 68.005 24.0237 68.005 23.679C68.005 23.3343 67.8913 23.0703 67.664 22.887C67.444 22.6963 67.1287 22.601 66.718 22.601H65.255V24.735H66.729ZM73.4917 19.829C74.0857 19.829 74.6173 19.9537 75.0867 20.203C75.5633 20.4523 75.9373 20.8153 76.2087 21.292C76.48 21.7613 76.6157 22.315 76.6157 22.953C76.6157 23.591 76.48 24.1447 76.2087 24.614C75.9373 25.0833 75.5633 25.4463 75.0867 25.703C74.6173 25.9523 74.0857 26.077 73.4917 26.077C72.8977 26.077 72.3623 25.9523 71.8857 25.703C71.4163 25.4463 71.046 25.0833 70.7747 24.614C70.5033 24.1447 70.3677 23.591 70.3677 22.953C70.3677 22.315 70.5033 21.7613 70.7747 21.292C71.046 20.8153 71.4163 20.4523 71.8857 20.203C72.3623 19.9537 72.8977 19.829 73.4917 19.829ZM73.4917 21.171C73.059 21.171 72.6923 21.325 72.3917 21.633C72.091 21.9337 71.9407 22.3737 71.9407 22.953C71.9407 23.5323 72.091 23.976 72.3917 24.284C72.6923 24.5847 73.059 24.735 73.4917 24.735C73.9243 24.735 74.291 24.5847 74.5917 24.284C74.8923 23.976 75.0427 23.5323 75.0427 22.953C75.0427 22.3737 74.8923 21.9337 74.5917 21.633C74.291 21.325 73.9243 21.171 73.4917 21.171ZM80.5278 19.829C81.1218 19.829 81.6535 19.9537 82.1228 20.203C82.5995 20.4523 82.9735 20.8153 83.2448 21.292C83.5161 21.7613 83.6518 22.315 83.6518 22.953C83.6518 23.591 83.5161 24.1447 83.2448 24.614C82.9735 25.0833 82.5995 25.4463 82.1228 25.703C81.6535 25.9523 81.1218 26.077 80.5278 26.077C79.9338 26.077 79.3985 25.9523 78.9218 25.703C78.4525 25.4463 78.0821 25.0833 77.8108 24.614C77.5395 24.1447 77.4038 23.591 77.4038 22.953C77.4038 22.315 77.5395 21.7613 77.8108 21.292C78.0821 20.8153 78.4525 20.4523 78.9218 20.203C79.3985 19.9537 79.9338 19.829 80.5278 19.829ZM80.5278 21.171C80.0951 21.171 79.7285 21.325 79.4278 21.633C79.1271 21.9337 78.9768 22.3737 78.9768 22.953C78.9768 23.5323 79.1271 23.976 79.4278 24.284C79.7285 24.5847 80.0951 24.735 80.5278 24.735C80.9605 24.735 81.3271 24.5847 81.6278 24.284C81.9285 23.976 82.0788 23.5323 82.0788 22.953C82.0788 22.3737 81.9285 21.9337 81.6278 21.633C81.3271 21.325 80.9605 21.171 80.5278 21.171ZM86.8489 19.829C87.5896 19.829 88.1836 20.016 88.6309 20.39C89.0783 20.764 89.3569 21.2627 89.4669 21.886H88.0149C87.9563 21.5927 87.8243 21.358 87.6189 21.182C87.4136 21.006 87.1459 20.918 86.8159 20.918C86.5519 20.918 86.3466 20.9803 86.1999 21.105C86.0533 21.2297 85.9799 21.3983 85.9799 21.611C85.9799 21.7797 86.0386 21.9153 86.1559 22.018C86.2733 22.1207 86.4199 22.2013 86.5959 22.26C86.7719 22.3187 87.0249 22.3883 87.3549 22.469C87.8169 22.5717 88.1909 22.6817 88.4769 22.799C88.7703 22.909 89.0196 23.0887 89.2249 23.338C89.4376 23.58 89.5439 23.91 89.5439 24.328C89.5439 24.8487 89.3386 25.2703 88.9279 25.593C88.5246 25.9157 87.9783 26.077 87.2889 26.077C86.4969 26.077 85.8626 25.901 85.3859 25.549C84.9093 25.1897 84.6196 24.68 84.5169 24.02H86.0019C86.0386 24.3207 86.1706 24.559 86.3979 24.735C86.6253 24.9037 86.9223 24.988 87.2889 24.988C87.5529 24.988 87.7546 24.9257 87.8939 24.801C88.0333 24.669 88.1029 24.5003 88.1029 24.295C88.1029 24.119 88.0406 23.976 87.9159 23.866C87.7986 23.756 87.6483 23.6717 87.4649 23.613C87.2889 23.5543 87.0359 23.4847 86.7059 23.404C86.2513 23.3013 85.8809 23.1987 85.5949 23.096C85.3163 22.986 85.0743 22.8137 84.8689 22.579C84.6709 22.3443 84.5719 22.0217 84.5719 21.611C84.5719 21.083 84.7736 20.654 85.1769 20.324C85.5803 19.994 86.1376 19.829 86.8489 19.829ZM93.9551 24.669V26H93.1411C92.4591 26 91.9348 25.835 91.5681 25.505C91.2088 25.175 91.0291 24.625 91.0291 23.855V21.215H90.1821V19.906H91.0291V18.399H92.5801V19.906H93.9441V21.215H92.5801V23.877C92.5801 24.1703 92.6388 24.3757 92.7561 24.493C92.8735 24.6103 93.0715 24.669 93.3501 24.669H93.9551ZM98.5117 19.906L100.173 24.042L101.713 19.906H103.418L99.6887 28.904H97.9727L99.3477 25.824L96.7847 19.906H98.5117ZM106.964 19.829C107.558 19.829 108.09 19.9537 108.559 20.203C109.036 20.4523 109.41 20.8153 109.681 21.292C109.953 21.7613 110.088 22.315 110.088 22.953C110.088 23.591 109.953 24.1447 109.681 24.614C109.41 25.0833 109.036 25.4463 108.559 25.703C108.09 25.9523 107.558 26.077 106.964 26.077C106.37 26.077 105.835 25.9523 105.358 25.703C104.889 25.4463 104.519 25.0833 104.247 24.614C103.976 24.1447 103.84 23.591 103.84 22.953C103.84 22.315 103.976 21.7613 104.247 21.292C104.519 20.8153 104.889 20.4523 105.358 20.203C105.835 19.9537 106.37 19.829 106.964 19.829ZM106.964 21.171C106.532 21.171 106.165 21.325 105.864 21.633C105.564 21.9337 105.413 22.3737 105.413 22.953C105.413 23.5323 105.564 23.976 105.864 24.284C106.165 24.5847 106.532 24.735 106.964 24.735C107.397 24.735 107.764 24.5847 108.064 24.284C108.365 23.976 108.515 23.5323 108.515 22.953C108.515 22.3737 108.365 21.9337 108.064 21.633C107.764 21.325 107.397 21.171 106.964 21.171ZM117.014 19.906V26H115.463V24.768C115.302 25.1787 115.034 25.5013 114.66 25.736C114.294 25.9633 113.868 26.077 113.384 26.077C112.68 26.077 112.119 25.846 111.701 25.384C111.283 24.922 111.074 24.2767 111.074 23.448V19.906H112.614V23.272C112.614 23.756 112.739 24.1337 112.988 24.405C113.238 24.669 113.575 24.801 114 24.801C114.448 24.801 114.803 24.658 115.067 24.372C115.331 24.086 115.463 23.6753 115.463 23.14V19.906H117.014ZM119.976 21.072C120.203 20.6833 120.504 20.379 120.878 20.159C121.252 19.9317 121.67 19.818 122.132 19.818V21.479H121.681C120.544 21.479 119.976 22.007 119.976 23.063V26H118.425V19.906H119.976V21.072ZM127.773 19.829C128.286 19.829 128.726 19.95 129.093 20.192C129.459 20.434 129.72 20.7603 129.874 21.171V19.906H131.414V26.022C131.414 26.5867 131.3 27.0927 131.073 27.54C130.853 27.9947 130.519 28.3503 130.072 28.607C129.632 28.8637 129.096 28.992 128.466 28.992C127.586 28.992 126.874 28.783 126.332 28.365C125.789 27.947 125.459 27.3787 125.342 26.66H126.871C126.959 26.968 127.127 27.2063 127.377 27.375C127.633 27.551 127.96 27.639 128.356 27.639C128.81 27.639 129.177 27.5033 129.456 27.232C129.734 26.968 129.874 26.5647 129.874 26.022V24.724C129.72 25.1347 129.459 25.4647 129.093 25.714C128.726 25.956 128.286 26.077 127.773 26.077C127.259 26.077 126.797 25.9523 126.387 25.703C125.976 25.4537 125.653 25.0943 125.419 24.625C125.191 24.1483 125.078 23.591 125.078 22.953C125.078 22.315 125.191 21.7613 125.419 21.292C125.653 20.8153 125.976 20.4523 126.387 20.203C126.797 19.9537 127.259 19.829 127.773 19.829ZM128.257 21.182C127.773 21.182 127.384 21.3397 127.091 21.655C126.797 21.9703 126.651 22.403 126.651 22.953C126.651 23.503 126.797 23.9357 127.091 24.251C127.384 24.559 127.773 24.713 128.257 24.713C128.726 24.713 129.111 24.5553 129.412 24.24C129.72 23.9173 129.874 23.4883 129.874 22.953C129.874 22.4103 129.72 21.9813 129.412 21.666C129.111 21.3433 128.726 21.182 128.257 21.182ZM134.37 21.072C134.598 20.6833 134.898 20.379 135.272 20.159C135.646 19.9317 136.064 19.818 136.526 19.818V21.479H136.075C134.939 21.479 134.37 22.007 134.37 23.063V26H132.819V19.906H134.37V21.072ZM139.772 19.829C140.285 19.829 140.725 19.95 141.092 20.192C141.458 20.434 141.719 20.7603 141.873 21.171V19.906H143.413V26H141.873V24.724C141.719 25.1347 141.458 25.4647 141.092 25.714C140.725 25.956 140.285 26.077 139.772 26.077C139.258 26.077 138.796 25.9523 138.386 25.703C137.975 25.4537 137.652 25.0943 137.418 24.625C137.19 24.1483 137.077 23.591 137.077 22.953C137.077 22.315 137.19 21.7613 137.418 21.292C137.652 20.8153 137.975 20.4523 138.386 20.203C138.796 19.9537 139.258 19.829 139.772 19.829ZM140.256 21.182C139.772 21.182 139.383 21.3397 139.09 21.655C138.796 21.9703 138.65 22.403 138.65 22.953C138.65 23.503 138.796 23.9357 139.09 24.251C139.383 24.559 139.772 24.713 140.256 24.713C140.725 24.713 141.11 24.5553 141.411 24.24C141.719 23.9173 141.873 23.4883 141.873 22.953C141.873 22.4103 141.719 21.9813 141.411 21.666C141.11 21.3433 140.725 21.182 140.256 21.182ZM147.205 19.829C147.719 19.829 148.155 19.95 148.514 20.192C148.881 20.434 149.145 20.7603 149.306 21.171V17.86H150.846V26H149.306V24.724C149.145 25.1347 148.881 25.4647 148.514 25.714C148.155 25.956 147.719 26.077 147.205 26.077C146.692 26.077 146.23 25.9523 145.819 25.703C145.409 25.4537 145.086 25.0943 144.851 24.625C144.624 24.1483 144.51 23.591 144.51 22.953C144.51 22.315 144.624 21.7613 144.851 21.292C145.086 20.8153 145.409 20.4523 145.819 20.203C146.23 19.9537 146.692 19.829 147.205 19.829ZM147.689 21.182C147.205 21.182 146.817 21.3397 146.523 21.655C146.23 21.9703 146.083 22.403 146.083 22.953C146.083 23.503 146.23 23.9357 146.523 24.251C146.817 24.559 147.205 24.713 147.689 24.713C148.159 24.713 148.544 24.5553 148.844 24.24C149.152 23.9173 149.306 23.4883 149.306 22.953C149.306 22.4103 149.152 21.9813 148.844 21.666C148.544 21.3433 148.159 21.182 147.689 21.182ZM157.983 22.722C157.983 22.876 157.965 23.052 157.928 23.25H153.462C153.484 23.7927 153.631 24.1923 153.902 24.449C154.173 24.7057 154.511 24.834 154.914 24.834C155.273 24.834 155.57 24.746 155.805 24.57C156.047 24.394 156.201 24.1557 156.267 23.855H157.906C157.825 24.2803 157.653 24.6617 157.389 24.999C157.125 25.3363 156.784 25.6003 156.366 25.791C155.955 25.9817 155.497 26.077 154.991 26.077C154.397 26.077 153.869 25.9523 153.407 25.703C152.945 25.4463 152.586 25.0833 152.329 24.614C152.072 24.1447 151.944 23.591 151.944 22.953C151.944 22.315 152.072 21.7613 152.329 21.292C152.586 20.8153 152.945 20.4523 153.407 20.203C153.869 19.9537 154.397 19.829 154.991 19.829C155.592 19.829 156.117 19.9537 156.564 20.203C157.019 20.4523 157.367 20.797 157.609 21.237C157.858 21.6697 157.983 22.1647 157.983 22.722ZM156.421 22.568C156.443 22.0693 156.311 21.6917 156.025 21.435C155.746 21.1783 155.402 21.05 154.991 21.05C154.573 21.05 154.221 21.1783 153.935 21.435C153.649 21.6917 153.491 22.0693 153.462 22.568H156.421ZM161.185 19.829C161.926 19.829 162.52 20.016 162.967 20.39C163.414 20.764 163.693 21.2627 163.803 21.886H162.351C162.292 21.5927 162.16 21.358 161.955 21.182C161.75 21.006 161.482 20.918 161.152 20.918C160.888 20.918 160.683 20.9803 160.536 21.105C160.389 21.2297 160.316 21.3983 160.316 21.611C160.316 21.7797 160.375 21.9153 160.492 22.018C160.609 22.1207 160.756 22.2013 160.932 22.26C161.108 22.3187 161.361 22.3883 161.691 22.469C162.153 22.5717 162.527 22.6817 162.813 22.799C163.106 22.909 163.356 23.0887 163.561 23.338C163.774 23.58 163.88 23.91 163.88 24.328C163.88 24.8487 163.675 25.2703 163.264 25.593C162.861 25.9157 162.314 26.077 161.625 26.077C160.833 26.077 160.199 25.901 159.722 25.549C159.245 25.1897 158.956 24.68 158.853 24.02H160.338C160.375 24.3207 160.507 24.559 160.734 24.735C160.961 24.9037 161.258 24.988 161.625 24.988C161.889 24.988 162.091 24.9257 162.23 24.801C162.369 24.669 162.439 24.5003 162.439 24.295C162.439 24.119 162.377 23.976 162.252 23.866C162.135 23.756 161.984 23.6717 161.801 23.613C161.625 23.5543 161.372 23.4847 161.042 23.404C160.587 23.3013 160.217 23.1987 159.931 23.096C159.652 22.986 159.41 22.8137 159.205 22.579C159.007 22.3443 158.908 22.0217 158.908 21.611C158.908 21.083 159.11 20.654 159.513 20.324C159.916 19.994 160.474 19.829 161.185 19.829ZM176.154 19.906L174.515 26H172.799L171.49 21.567L170.148 26H168.432L166.804 19.906H168.355L169.345 24.614L170.698 19.906H172.337L173.701 24.614L174.702 19.906H176.154ZM176.751 18.157C176.751 17.9077 176.839 17.706 177.015 17.552C177.191 17.3907 177.422 17.31 177.708 17.31C177.994 17.31 178.225 17.3907 178.401 17.552C178.577 17.706 178.665 17.9077 178.665 18.157C178.665 18.399 178.577 18.6007 178.401 18.762C178.225 18.916 177.994 18.993 177.708 18.993C177.422 18.993 177.191 18.916 177.015 18.762C176.839 18.6007 176.751 18.399 176.751 18.157ZM178.478 19.906V26H176.927V19.906H178.478ZM183.137 24.669V26H182.323C181.641 26 181.116 25.835 180.75 25.505C180.39 25.175 180.211 24.625 180.211 23.855V21.215H179.364V19.906H180.211V18.399H181.762V19.906H183.126V21.215H181.762V23.877C181.762 24.1703 181.82 24.3757 181.938 24.493C182.055 24.6103 182.253 24.669 182.532 24.669H183.137ZM187.883 19.818C188.587 19.818 189.148 20.049 189.566 20.511C189.984 20.973 190.193 21.622 190.193 22.458V26H188.653V22.634C188.653 22.15 188.528 21.776 188.279 21.512C188.029 21.2407 187.688 21.105 187.256 21.105C186.816 21.105 186.464 21.248 186.2 21.534C185.936 21.82 185.804 22.2307 185.804 22.766V26H184.253V17.86H185.804V21.127C185.965 20.7163 186.229 20.3973 186.596 20.17C186.97 19.9353 187.399 19.818 187.883 19.818Z" fill="white"/>
<path d="M91.6944 54.5939L89.9362 53.5254C88.8333 52.8518 88.0476 52.1888 87.579 51.5364C87.1139 50.884 86.8778 50.1328 86.8778 49.2829C86.8778 48.0098 87.3182 46.973 88.2026 46.1795C89.087 45.3825 90.2357 44.9875 91.6451 44.9875C93.0545 44.9875 94.2348 45.3684 95.3624 46.1266V48.7575C94.1961 47.636 92.9417 47.0753 91.5993 47.0753C90.8417 47.0753 90.2216 47.2516 89.7354 47.6007C89.2491 47.9499 89.006 48.3977 89.006 48.9444C89.006 49.4275 89.1857 49.8824 89.5416 50.3056C89.901 50.7288 90.4753 51.1732 91.2681 51.6387L93.0369 52.6861C95.01 53.8639 95.9966 55.3663 95.9966 57.1895C95.9966 58.4873 95.5632 59.5417 94.6929 60.3528C93.8226 61.164 92.6951 61.5695 91.3068 61.5695C89.7107 61.5695 88.2555 61.0793 86.9412 60.0954V57.1542C88.1921 58.7412 89.6367 59.5311 91.2822 59.5311C92.008 59.5311 92.6105 59.3301 93.0932 58.9246C93.576 58.519 93.8155 58.0147 93.8155 57.4081C93.8155 56.4242 93.1038 55.4897 91.6874 54.6045L91.6944 54.5939Z" fill="white"/>
<path d="M106.246 58.8856V60.9698C105.189 61.3648 104.153 61.5623 103.146 61.5623C101.479 61.5623 100.151 61.0686 99.1572 60.0811C98.1671 59.0937 97.6703 57.7677 97.6703 56.1067C97.6703 54.4457 98.153 53.0774 99.1184 52.0511C100.084 51.0249 101.352 50.51 102.927 50.51C103.473 50.51 103.967 50.5629 104.404 50.6652C104.841 50.771 105.376 50.9649 106.017 51.2506V53.497C104.953 52.8164 103.963 52.4778 103.054 52.4778C102.145 52.4778 101.324 52.8129 100.715 53.4794C100.105 54.1494 99.7985 54.9993 99.7985 56.0326C99.7985 57.1223 100.13 57.9864 100.789 58.6282C101.447 59.27 102.339 59.5909 103.456 59.5909C104.266 59.5909 105.196 59.3547 106.246 58.8856Z" fill="white"/>
<path d="M108.596 45.1885H110.703V52.1182C111.584 51.0461 112.676 50.5066 113.98 50.5066C114.688 50.5066 115.326 50.6829 115.89 51.0391C116.454 51.3953 116.873 51.8854 117.144 52.5096C117.419 53.1339 117.556 54.0649 117.556 55.3027V61.3719H115.449V54.7808C115.449 54.0014 115.259 53.3737 114.875 52.8976C114.491 52.4215 113.991 52.1852 113.363 52.1852C112.902 52.1852 112.465 52.3051 112.056 52.5449C111.648 52.7847 111.197 53.1832 110.703 53.7369V61.3719H108.596V45.1885Z" fill="white"/>
<path d="M125.587 50.6934C127.208 50.6934 128.553 51.2153 129.628 52.2627C130.699 53.3101 131.238 54.6255 131.238 56.2089C131.238 57.7924 130.696 59.0231 129.607 60.0388C128.518 61.0544 127.148 61.5623 125.499 61.5623C123.85 61.5623 122.567 61.0474 121.492 60.0141C120.418 58.9808 119.882 57.6936 119.882 56.149C119.882 54.6043 120.425 53.2889 121.51 52.2521C122.595 51.2118 123.955 50.6934 125.59 50.6934H125.587ZM125.47 52.5942C124.459 52.5942 123.631 52.9257 122.983 53.5922C122.335 54.2552 122.01 55.1016 122.01 56.1278C122.01 57.154 122.342 57.9793 123.008 58.6246C123.673 59.27 124.523 59.5909 125.566 59.5909C126.609 59.5909 127.447 59.2629 128.106 58.6105C128.765 57.9581 129.096 57.1223 129.096 56.1031C129.096 55.0839 128.754 54.2552 128.067 53.5887C127.38 52.9257 126.517 52.5907 125.474 52.5907L125.47 52.5942Z" fill="white"/>
<path d="M133.62 45.1885H135.727V61.3719H133.62V45.1885Z" fill="white"/>
<path d="M145.463 54.9676V59.4993C145.463 59.8625 145.586 60.0423 145.833 60.0423C146.079 60.0423 146.485 59.8519 147.024 59.4746V60.7618C146.544 61.0721 146.16 61.2802 145.871 61.393C145.583 61.5059 145.279 61.5623 144.962 61.5623C144.06 61.5623 143.528 61.2061 143.366 60.4973C142.471 61.192 141.516 61.5411 140.509 61.5411C139.769 61.5411 139.152 61.2978 138.655 60.8041C138.162 60.3139 137.915 59.6967 137.915 58.9562C137.915 58.2826 138.155 57.6831 138.638 57.1541C139.12 56.6251 139.804 56.2054 140.692 55.8986L143.387 54.9711V54.4033C143.387 53.1232 142.746 52.4814 141.467 52.4814C140.318 52.4814 139.198 53.0774 138.109 54.2658V51.9594C138.927 50.9931 140.103 50.51 141.64 50.51C142.788 50.51 143.712 50.8098 144.406 51.4128C144.638 51.6068 144.846 51.8642 145.029 52.1816C145.216 52.5025 145.332 52.8234 145.382 53.1444C145.431 53.4653 145.456 54.0719 145.456 54.9676H145.463ZM143.391 59.2665V56.1032L141.978 56.6463C141.259 56.9319 140.752 57.2211 140.456 57.5103C140.16 57.7994 140.008 58.1627 140.008 58.5929C140.008 59.0232 140.149 59.3935 140.431 59.6721C140.713 59.9507 141.076 60.0882 141.523 60.0882C142.196 60.0882 142.817 59.8131 143.387 59.2665H143.391Z" fill="white"/>
<path d="M151.146 50.7145V53.1584L151.262 52.9715C152.28 51.3281 153.299 50.5029 154.317 50.5029C155.113 50.5029 155.941 50.905 156.805 51.709L155.695 53.564C154.962 52.8693 154.282 52.5201 153.658 52.5201C152.978 52.5201 152.39 52.8446 151.893 53.4935C151.396 54.1424 151.146 54.9111 151.146 55.7998V61.3718H149.028V50.7145H151.146Z" fill="white"/>
<path d="M158.323 45.1885H160.43V61.3719H158.323V45.1885Z" fill="white"/>
<path d="M169.778 50.7146H172.143L164.595 66.8064H162.245L165.86 59.0832L161.748 50.7146H164.148L167.023 56.7345L169.778 50.7146Z" fill="white"/>
<path d="M185.317 45.1885H187.632V61.3719H185.317V54.3294H176.23V61.3719H173.915V45.1885H176.23V52.1852H185.317V45.1885Z" fill="white"/>
<path d="M199.982 56.2302H192.491C192.544 57.2494 192.886 58.0605 193.516 58.6636C194.144 59.2666 194.958 59.5664 195.951 59.5664C197.339 59.5664 198.622 59.1326 199.795 58.2686V60.3316C199.147 60.7654 198.506 61.0722 197.868 61.2591C197.23 61.446 196.483 61.5377 195.627 61.5377C194.454 61.5377 193.506 61.2944 192.78 60.8077C192.054 60.3211 191.473 59.6651 191.039 58.8434C190.602 58.0217 190.384 57.0695 190.384 55.9869C190.384 54.3647 190.842 53.0457 191.762 52.0301C192.681 51.0144 193.872 50.5066 195.338 50.5066C196.804 50.5066 197.878 51.0003 198.717 51.9878C199.559 52.9752 199.978 54.3012 199.978 55.9622V56.2302H199.982ZM192.54 54.9677H197.9C197.847 54.1249 197.593 53.476 197.146 53.021C196.698 52.5661 196.096 52.3369 195.342 52.3369C194.588 52.3369 193.967 52.5661 193.485 53.021C193.002 53.476 192.688 54.1249 192.54 54.9677Z" fill="white"/>
<path d="M202.307 45.1885H204.414V61.3719H202.307V45.1885Z" fill="white"/>
<path d="M207.321 66.8098V50.718H211.01C212.899 50.718 214.368 51.1906 215.421 52.1322C216.475 53.0738 217 54.3927 217 56.0819C217 57.6795 216.503 58.9949 215.513 60.0211C214.523 61.0474 213.262 61.5622 211.729 61.5622C211.052 61.5622 210.298 61.4106 209.474 61.1108V66.8098H207.321ZM210.964 52.6858H209.474V59.2418C210.122 59.5732 210.799 59.739 211.507 59.739C212.493 59.739 213.3 59.3969 213.927 58.7092C214.555 58.0216 214.868 57.1364 214.868 56.0573C214.868 55.3625 214.72 54.7489 214.424 54.2164C214.128 53.6839 213.723 53.2959 213.212 53.0526C212.701 52.8093 211.951 52.6894 210.964 52.6894V52.6858Z" fill="white"/>
<path d="M65.1408 41.1822C65.021 41.1822 64.9329 41.1822 64.8413 41.1822C61.11 41.1822 57.3821 41.1822 53.6508 41.1822C51.0927 41.4573 48.8764 42.3777 47.4318 44.6383C46.6602 45.8408 46.4699 47.2056 46.5404 48.6127C46.5932 49.7271 46.8011 50.8098 47.2909 51.8219C48.2633 53.8461 49.9123 55.0381 52.0335 55.6341C52.6289 55.7999 53.235 55.8739 53.8586 55.8739C57.1496 55.8669 60.444 55.8845 63.735 55.8633C65.2712 55.8528 67.3254 56.7415 67.9138 59.1501C68.1323 60.0459 68.2098 60.9522 67.9491 61.855C67.5932 63.0999 66.7158 63.8581 65.5672 64.3518C64.5383 64.7962 63.4531 65.0289 62.3432 65.0395C59.394 65.0748 56.4449 65.0571 53.4957 65.0571C52.9813 65.0571 52.4633 65.0324 51.9524 65.0571C50.5254 65.1206 49.1442 64.8773 47.7806 64.4929C45.0746 63.7241 42.5835 62.5321 40.4165 60.723C37.7704 58.5118 36.0791 55.7223 35.3744 52.3368C35.089 50.9649 34.9587 49.586 35.0115 48.193C35.0855 46.1582 35.614 44.2256 36.4561 42.3812C37.9219 39.1721 40.1206 36.6223 43.2353 34.912C44.8984 33.9986 46.6778 33.4484 48.5523 33.1875C49.8947 33.0006 51.2407 32.9441 52.5902 33.0605C55.9763 33.3497 58.9642 34.6016 61.5469 36.8163C62.8717 37.9519 63.9992 39.2567 64.9118 40.7449C64.9752 40.8507 65.0387 40.96 65.0986 41.0694C65.1091 41.0905 65.1162 41.1117 65.1408 41.1822Z" fill="white"/>
<path d="M51.6533 67.0709H51.9246C55.3882 67.0709 58.8553 67.0498 62.3189 67.0815C63.9432 67.0956 65.4231 66.6548 66.8078 65.8543C68.1362 65.0855 69.0945 63.9852 69.5843 62.5146C69.9261 61.4919 69.9825 60.441 69.8908 59.3724C69.7922 58.258 69.5279 57.1895 68.9783 56.2126C67.9565 54.3999 66.3638 53.3561 64.3907 52.8271C63.4816 52.5838 62.5479 52.6261 61.6248 52.6261C58.7778 52.6225 55.9308 52.6331 53.0803 52.6402C50.8676 52.6472 49.1411 51.152 48.8169 48.962C48.6971 48.1579 48.6619 47.3609 48.9296 46.5815C49.3243 45.4178 50.1875 44.7195 51.2798 44.261C52.2593 43.8484 53.2952 43.6227 54.3488 43.6121C57.4212 43.5804 60.4972 43.598 63.5697 43.5945C63.9679 43.5945 64.366 43.6157 64.7642 43.5945C66.0643 43.5346 67.3222 43.7708 68.566 44.1129C71.117 44.8147 73.4742 45.9079 75.5601 47.5513C78.5128 49.8753 80.3345 52.8835 80.9898 56.5935C81.2118 57.8525 81.3175 59.1185 81.247 60.3916C81.1343 62.4158 80.5846 64.3308 79.7178 66.1575C78.2626 69.2151 76.1239 71.6484 73.1289 73.2812C71.5117 74.1629 69.7816 74.6954 67.96 74.9528C66.6246 75.1397 65.2857 75.1926 63.9467 75.0763C60.9553 74.8188 58.2563 73.7891 55.8744 71.9517C54.2395 70.6927 52.8724 69.1869 51.8048 67.413C51.752 67.3248 51.7061 67.2367 51.6603 67.145C51.6533 67.1344 51.6603 67.1168 51.6603 67.0745L51.6533 67.0709Z" fill="white"/>
<path d="M6.53573 28.4409C6.53573 28.4409 17.5479 26.3101 18.1017 13.9922C18.1017 13.9922 18.2046 26.7066 30.2184 26.4804C30.2184 26.4804 18.887 27.2436 18.2746 38.4162C18.2455 38.4169 16.6998 27.0918 6.53573 28.4409Z" fill="#9F92EC"/>
<path d="M25.6593 16.7029C25.6593 16.7029 28.8093 16.0934 28.9677 12.5699C28.9677 12.5699 28.9972 16.2068 32.4337 16.1421C32.4337 16.1421 29.1924 16.3604 29.0172 19.5563C29.0089 19.5565 28.5667 16.317 25.6593 16.7029Z" fill="#9F92EC"/>
<rect width="182.203" height="153.312" rx="12" transform="matrix(0.994931 -0.10056 0.122684 0.992446 21.2964 106.809)" fill="#282DC7"/>
<rect x="33.5" y="96.5" width="182" height="166" rx="11.5" fill="#565ADD" stroke="#282DC7"/>
<g clip-path="url(#clip0_550_72)">
<path d="M106.057 201.527C123.511 201.527 140.967 201.525 158.421 201.536C158.942 201.536 159.928 201.701 159.915 201.739C159.78 202.132 158.983 201.964 158.468 201.964C123.414 201.973 88.363 201.972 53.3096 201.972C53.1657 201.972 53.0004 201.993 52.8845 201.968C52.5775 201.902 52.292 201.819 52 201.742C52.3134 201.671 52.6226 201.543 52.9425 201.537C54.2284 201.513 55.5165 201.528 56.8046 201.528C73.2214 201.528 89.6404 201.528 106.057 201.528V201.527Z" fill="white"/>
<path d="M110.774 182.199C91.7078 182.199 72.6418 182.201 53.5779 182.19C53.0584 182.19 52.5388 182.059 52.0193 181.989C52.541 181.92 53.0626 181.791 53.5843 181.791C91.7507 181.78 129.919 181.779 168.086 181.786C168.569 181.786 169.052 181.92 169.535 181.991C169.05 182.061 168.564 182.191 168.079 182.191C148.979 182.201 129.876 182.199 110.776 182.199V182.196L110.774 182.199Z" fill="white"/>
<path d="M94.0908 188.796C80.57 188.796 67.0514 188.796 53.5307 188.796C53.2795 188.796 53.0047 188.824 52.7857 188.788C52.5002 188.741 52.2598 188.643 52 188.568C52.2426 188.499 52.468 188.408 52.7342 188.369C52.9575 188.336 53.2301 188.361 53.4792 188.361C80.6624 188.36 107.846 188.358 135.027 188.363C135.492 188.363 136.22 188.237 136.263 188.592C136.27 188.652 135.492 188.789 135.078 188.79C124.956 188.801 114.833 188.799 104.711 188.799C101.171 188.799 97.6288 188.799 94.0886 188.799V188.797L94.0908 188.796Z" fill="white"/>
<path d="M122.251 194.951C134.337 194.951 146.426 194.948 158.513 194.959C159.005 194.959 159.928 195.104 159.917 195.146C159.812 195.549 159.002 195.385 158.487 195.385C134.312 195.392 110.138 195.39 85.9628 195.389C85.8555 195.389 85.7331 195.402 85.643 195.386C85.2694 195.316 84.9045 195.236 84.5374 195.16C84.913 195.091 85.2909 194.963 85.6687 194.962C97.8627 194.952 110.057 194.953 122.253 194.953V194.95L122.251 194.951Z" fill="white"/>
<path d="M172.957 188.797C164.767 188.797 156.574 188.797 148.384 188.797C148.17 188.797 147.923 188.827 147.749 188.792C147.502 188.742 147.309 188.643 147.092 188.566C147.296 188.499 147.476 188.402 147.706 188.372C147.968 188.337 148.273 188.359 148.558 188.359C164.904 188.359 181.252 188.359 197.598 188.366C198.09 188.366 198.856 188.215 198.936 188.596C198.946 188.647 198.092 188.789 197.637 188.789C189.41 188.801 181.183 188.798 172.957 188.797Z" fill="white"/>
<path d="M156.845 174.818C170.366 174.818 183.884 174.818 197.405 174.818C197.656 174.818 197.931 174.789 198.15 174.825C198.435 174.872 198.676 174.97 198.936 175.046C198.693 175.114 198.468 175.205 198.201 175.245C197.978 175.278 197.705 175.253 197.456 175.253C170.273 175.254 143.09 175.256 115.909 175.25C115.443 175.25 114.715 175.376 114.672 175.021C114.666 174.961 115.443 174.824 115.857 174.823C125.98 174.812 136.102 174.815 146.224 174.815C149.765 174.815 153.307 174.815 156.847 174.815V174.817L156.845 174.818Z" fill="white"/>
<path d="M77.9788 174.817C86.1689 174.817 94.3613 174.817 102.551 174.817C102.766 174.817 103.013 174.787 103.187 174.822C103.434 174.872 103.627 174.971 103.844 175.048C103.64 175.115 103.46 175.212 103.23 175.242C102.968 175.277 102.663 175.255 102.378 175.255C86.0316 175.255 69.6834 175.255 53.3375 175.248C52.8458 175.248 52.0794 175.398 52 175.018C51.9892 174.967 52.8437 174.824 53.2988 174.824C61.5255 174.812 69.7521 174.816 77.9788 174.817Z" fill="white"/>
<path d="M94.0908 169.061C80.57 169.061 67.0514 169.061 53.5307 169.061C53.2795 169.061 53.0047 169.09 52.7857 169.054C52.5002 169.007 52.2598 168.909 52 168.833C52.2426 168.765 52.468 168.674 52.7342 168.634C52.9575 168.601 53.2301 168.626 53.4792 168.626C80.6624 168.625 107.846 168.623 135.027 168.629C135.492 168.629 136.22 168.503 136.263 168.858C136.27 168.918 135.492 169.055 135.078 169.056C124.956 169.067 114.833 169.064 104.711 169.064C101.171 169.064 97.6288 169.064 94.0886 169.064V169.062L94.0908 169.061Z" fill="white"/>
<path d="M172.957 169.062C164.767 169.062 156.574 169.062 148.384 169.062C148.17 169.062 147.923 169.093 147.749 169.058C147.502 169.007 147.309 168.909 147.092 168.831C147.296 168.764 147.476 168.667 147.706 168.637C147.968 168.602 148.273 168.624 148.558 168.624C164.904 168.624 181.252 168.624 197.598 168.632C198.09 168.632 198.856 168.481 198.936 168.862C198.946 168.912 198.092 169.055 197.637 169.055C189.41 169.067 181.183 169.063 172.957 169.062Z" fill="white"/>
<path d="M183.768 195.393C179.232 195.393 174.694 195.393 170.157 195.393C169.835 195.393 169.498 195.413 169.198 195.378C168.962 195.35 168.773 195.251 168.562 195.183C168.783 195.105 168.983 195.009 169.234 194.959C169.41 194.924 169.655 194.951 169.87 194.951C179.123 194.951 188.375 194.948 197.628 194.96C198.083 194.96 198.938 195.102 198.927 195.148C198.841 195.515 198.098 195.389 197.594 195.39C192.985 195.399 188.378 195.395 183.768 195.394V195.393Z" fill="white"/>
<path d="M63.653 194.953C67.1159 194.953 70.5787 194.953 74.0415 194.953C74.3271 194.953 74.6255 194.941 74.8917 194.976C75.0549 194.997 75.2631 195.091 75.2717 195.157C75.2781 195.223 75.0913 195.331 74.9368 195.355C74.6792 195.394 74.3765 195.388 74.0931 195.388C67.1309 195.389 60.1687 195.392 53.2087 195.379C52.8072 195.379 52.4058 195.232 52.0065 195.155C52.3908 195.088 52.7729 194.964 53.1593 194.963C56.6587 194.948 60.1558 194.953 63.6552 194.953H63.653Z" fill="white"/>
<path d="M189.788 181.779C192.465 181.779 195.142 181.779 197.817 181.78C198.101 181.78 198.395 181.78 198.663 181.812C198.796 181.827 198.981 181.919 198.968 181.967C198.946 182.042 198.805 182.146 198.657 182.169C198.399 182.208 198.096 182.202 197.813 182.202C192.459 182.203 187.107 182.202 181.752 182.201C181.503 182.201 181.239 182.214 181.01 182.183C180.842 182.16 180.582 182.058 180.606 182.018C180.655 181.933 180.834 181.828 181.016 181.8C181.272 181.76 181.579 181.78 181.864 181.78C184.505 181.78 187.145 181.78 189.788 181.779Z" fill="white"/>
</g>
<g clip-path="url(#clip1_550_72)">
<path d="M229.907 103.675C230.46 102.79 230.962 101.987 231.464 101.185C232.445 99.6118 233.426 98.039 234.407 96.4661C234.449 96.3994 234.486 96.3231 234.545 96.2748C234.588 96.2387 234.69 96.2088 234.718 96.2333C234.767 96.2762 234.806 96.364 234.8 96.4287C234.793 96.5008 234.733 96.5689 234.691 96.6363C233.136 99.1297 231.582 101.624 230.022 104.114C229.958 104.217 229.837 104.282 229.743 104.364C229.693 104.248 229.614 104.135 229.599 104.014C229.468 102.945 229.35 101.874 229.226 100.803C229.206 100.637 229.18 100.471 229.153 100.28C227.989 100.682 226.855 101.073 225.722 101.464C225.658 101.486 225.595 101.519 225.53 101.526C225.448 101.534 225.363 101.52 225.279 101.516C225.29 101.422 225.272 101.311 225.316 101.238C225.641 100.695 225.979 100.16 226.315 99.6227C228.29 96.4586 230.266 93.2946 232.242 90.1305C232.283 90.0645 232.316 89.9923 232.34 89.9453C231.798 89.4333 231.241 88.956 230.741 88.4256C225.184 82.5393 227.21 72.6325 234.615 69.4541C240.26 67.0309 246.594 69.2288 249.568 74.6425C252.448 79.8839 250.853 86.6886 245.965 90.0563C244.851 90.8243 243.657 91.4072 242.359 91.7605C242.103 91.83 242.056 91.9423 242.06 92.1793C242.118 95.5599 242.17 98.9411 242.217 102.322C242.219 102.492 242.162 102.662 242.133 102.832C241.988 102.745 241.823 102.681 241.701 102.568C240.954 101.883 240.216 101.188 239.447 100.47C239.256 100.655 239.072 100.83 238.893 101.009C238.342 101.559 237.793 102.111 237.243 102.661C237.179 102.725 237.121 102.804 237.044 102.843C236.968 102.881 236.871 102.878 236.783 102.893C236.794 102.804 236.773 102.686 236.823 102.631C237.062 102.361 237.317 102.105 237.572 101.85C238.105 101.314 238.646 100.787 239.173 100.245C239.365 100.046 239.502 100.049 239.703 100.243C240.342 100.863 240.999 101.465 241.65 102.073C241.705 102.124 241.768 102.166 241.891 102.264C241.835 98.792 241.78 95.3876 241.725 91.9492C238.443 92.5824 235.434 91.9675 232.639 90.1223C230.369 93.7576 228.111 97.3744 225.798 101.079C226.379 100.882 226.865 100.718 227.348 100.551C227.921 100.354 228.492 100.151 229.066 99.9557C229.401 99.8413 229.455 99.878 229.495 100.233C229.611 101.247 229.724 102.262 229.84 103.276C229.851 103.376 229.873 103.474 229.907 103.676V103.675ZM227.908 80.3462C227.913 86.658 233.049 91.8307 239.306 91.8252C245.554 91.8198 250.636 86.6662 250.637 80.3326C250.639 73.9248 245.564 68.8264 239.19 68.8318C232.996 68.8373 227.903 74.0344 227.908 80.3462Z" fill="#C6BDFF"/>
<path d="M230.42 69.887C230.319 69.8972 230.198 69.9483 230.118 69.9108C229.823 69.774 229.538 69.6153 229.256 69.4519C227.284 68.3074 225.451 66.9742 223.826 65.3585C223.762 65.2951 223.679 65.2407 223.64 65.1637C223.597 65.0773 223.595 64.9704 223.576 64.8723C223.67 64.8927 223.792 64.8825 223.855 64.939C224.332 65.3687 224.784 65.8269 225.269 66.247C226.764 67.5421 228.393 68.6403 230.136 69.565C230.24 69.6194 230.332 69.6957 230.43 69.7617C230.426 69.8033 230.424 69.8448 230.42 69.8863V69.887Z" fill="#C6BDFF"/>
<path d="M228.336 71.85C227.244 71.7295 226.186 71.37 225.164 70.9022C224.503 70.5999 223.86 70.2547 223.217 69.9136C223.121 69.8632 223.071 69.725 223.001 69.6276C223.126 69.6317 223.274 69.5922 223.372 69.646C224.703 70.3752 226.06 71.0411 227.547 71.3788C227.863 71.4503 228.189 71.4735 228.505 71.5409C228.612 71.564 228.705 71.6553 228.805 71.7152C228.694 71.7601 228.583 71.8078 228.47 71.8486C228.441 71.8595 228.403 71.85 228.336 71.85Z" fill="#C6BDFF"/>
<path d="M231.944 68.4308C231.885 68.4546 231.832 68.4948 231.78 68.4927C231.708 68.4893 231.615 68.4764 231.571 68.4287C231.355 68.2 231.133 67.9725 230.949 67.7186C229.973 66.3711 229.339 64.8527 228.814 63.2826C228.789 63.205 228.857 63.0954 228.882 63.0007C228.962 63.0743 229.075 63.1321 229.116 63.2234C229.608 64.3244 230.045 65.4533 230.589 66.527C230.889 67.1221 231.363 67.6273 231.759 68.1734C231.804 68.2347 231.847 68.296 231.944 68.4308Z" fill="#C6BDFF"/>
<path d="M239.326 88.7857C236.31 88.6727 233.96 87.4491 232.321 84.9762C230.98 82.9546 230.625 80.7172 231.168 78.3437C231.19 78.2477 231.328 78.1782 231.411 78.0965C231.439 78.2245 231.515 78.3634 231.49 78.4799C231.109 80.242 231.256 81.9483 231.974 83.6035C233.355 86.7846 236.724 88.7591 240.116 88.369C243.662 87.9611 246.518 85.2873 247.14 81.7958C247.875 77.6669 245.454 73.7109 241.477 72.5426C241.445 72.533 241.4 72.5378 241.381 72.5174C241.306 72.4377 241.239 72.3512 241.169 72.2668C241.266 72.2341 241.375 72.1558 241.456 72.1776C241.78 72.2648 242.102 72.3662 242.413 72.4935C245.819 73.8859 247.92 77.3673 247.604 81.0815C247.275 84.9489 244.251 88.1606 240.447 88.6754C240.048 88.7292 239.645 88.7544 239.326 88.785V88.7857Z" fill="#C6BDFF"/>
<path d="M235.408 81.5656C235.719 81.6493 235.989 81.7174 236.257 81.7951C236.584 81.8897 236.695 82.0722 236.623 82.3704C236.552 82.6618 236.353 82.7857 236.03 82.7034C235.063 82.4582 234.098 82.2043 233.134 81.9476C232.858 81.8747 232.711 81.6977 232.772 81.3947C232.831 81.0917 233.015 80.9685 233.345 81.0359C233.661 81.0999 233.971 81.1904 234.313 81.2769C234.644 79.9859 234.968 78.7188 235.313 77.3714C235.022 77.4606 234.795 77.5355 234.566 77.5995C234.203 77.7002 233.964 77.5933 233.888 77.3026C233.818 77.035 233.966 76.7974 234.291 76.6986C234.827 76.5359 235.363 76.3664 235.907 76.237C236.501 76.0961 236.732 76.3589 236.58 76.9519C236.191 78.4758 235.804 80.0002 235.406 81.5649L235.408 81.5656Z" fill="#C6BDFF"/>
<path d="M239.618 83.6703C238.971 83.6294 238.296 83.4156 237.706 82.9635C237.61 82.89 237.483 82.7933 237.467 82.6918C237.443 82.5311 237.445 82.299 237.54 82.2077C237.626 82.126 237.873 82.1444 238.01 82.2057C238.416 82.3861 238.799 82.6183 239.201 82.8096C239.316 82.8648 239.464 82.8641 239.597 82.8648C239.844 82.8661 240.036 82.7551 240.11 82.508C240.187 82.2561 240.044 82.092 239.842 81.983C239.418 81.7536 238.964 81.5718 238.565 81.3055C237.825 80.8126 237.907 79.7191 238.702 79.3208C238.917 79.2132 239.169 79.1451 239.408 79.1315C240.116 79.092 240.755 79.3112 241.315 79.7565C241.626 80.0037 241.682 80.2155 241.504 80.4395C241.333 80.6546 241.171 80.6076 240.833 80.4102C240.482 80.2059 240.096 80.0432 239.706 79.9349C239.434 79.8594 239.165 79.9731 239.083 80.3053C239.007 80.6151 239.213 80.7649 239.441 80.8834C239.709 81.023 239.988 81.1442 240.26 81.2776C240.964 81.6228 241.241 82.0715 241.107 82.6455C240.958 83.2917 240.449 83.6628 239.616 83.6703H239.618Z" fill="#C6BDFF"/>
<path d="M242.693 80.8493C242.392 80.6566 241.808 80.7635 241.962 80.1841C242.116 79.6046 242.569 79.9948 242.923 79.9812C242.987 79.736 243.045 79.4848 243.118 79.2383C243.23 78.8611 243.458 78.7263 243.798 78.8243C244.151 78.9265 244.264 79.1335 244.176 79.5256C244.121 79.7667 244.059 80.0057 243.992 80.2835C244.287 80.3631 244.565 80.4339 244.841 80.515C245.168 80.6116 245.289 80.7873 245.207 81.0461C245.11 81.3497 244.896 81.3947 244.618 81.3157C244.351 81.2401 244.079 81.1809 243.773 81.1053C243.608 81.7719 243.421 82.4119 243.297 83.0642C243.2 83.5769 243.48 83.8615 244.075 83.9418C244.293 83.9711 244.554 83.9228 244.503 84.2918C244.455 84.6411 244.275 84.8379 243.959 84.7998C243.663 84.7637 243.357 84.7119 243.081 84.6009C242.361 84.3116 242.043 83.7478 242.189 82.977C242.324 82.2676 242.52 81.5703 242.693 80.85L242.693 80.8493Z" fill="#C6BDFF"/>
</g>
<path d="M53.528 212.528V213.872H51.188V221H49.496V213.872H47.168V212.528H53.528ZM56.1514 215.624C56.3994 215.2 56.7274 214.868 57.1354 214.628C57.5434 214.38 57.9994 214.256 58.5034 214.256V216.068H58.0114C56.7714 216.068 56.1514 216.644 56.1514 217.796V221H54.4594V214.352H56.1514V215.624ZM65.7999 214.352V221H64.1079V219.656C63.9319 220.104 63.6399 220.456 63.2319 220.712C62.8319 220.96 62.3679 221.084 61.8399 221.084C61.0719 221.084 60.4599 220.832 60.0039 220.328C59.5479 219.824 59.3199 219.12 59.3199 218.216V214.352H60.9999V218.024C60.9999 218.552 61.1359 218.964 61.4079 219.26C61.6799 219.548 62.0479 219.692 62.5119 219.692C62.9999 219.692 63.3879 219.536 63.6759 219.224C63.9639 218.912 64.1079 218.464 64.1079 217.88V214.352H65.7999ZM69.6303 214.268C70.4383 214.268 71.0863 214.472 71.5743 214.88C72.0623 215.288 72.3663 215.832 72.4863 216.512H70.9023C70.8383 216.192 70.6943 215.936 70.4703 215.744C70.2463 215.552 69.9543 215.456 69.5943 215.456C69.3063 215.456 69.0823 215.524 68.9223 215.66C68.7623 215.796 68.6823 215.98 68.6823 216.212C68.6823 216.396 68.7463 216.544 68.8743 216.656C69.0023 216.768 69.1623 216.856 69.3543 216.92C69.5463 216.984 69.8223 217.06 70.1823 217.148C70.6863 217.26 71.0943 217.38 71.4063 217.508C71.7263 217.628 71.9983 217.824 72.2223 218.096C72.4543 218.36 72.5703 218.72 72.5703 219.176C72.5703 219.744 72.3463 220.204 71.8983 220.556C71.4583 220.908 70.8623 221.084 70.1103 221.084C69.2463 221.084 68.5543 220.892 68.0343 220.508C67.5143 220.116 67.1983 219.56 67.0863 218.84H68.7063C68.7463 219.168 68.8903 219.428 69.1383 219.62C69.3863 219.804 69.7103 219.896 70.1103 219.896C70.3983 219.896 70.6183 219.828 70.7703 219.692C70.9223 219.548 70.9983 219.364 70.9983 219.14C70.9983 218.948 70.9303 218.792 70.7943 218.672C70.6663 218.552 70.5023 218.46 70.3023 218.396C70.1103 218.332 69.8343 218.256 69.4743 218.168C68.9783 218.056 68.5743 217.944 68.2623 217.832C67.9583 217.712 67.6943 217.524 67.4703 217.268C67.2543 217.012 67.1463 216.66 67.1463 216.212C67.1463 215.636 67.3663 215.168 67.8063 214.808C68.2463 214.448 68.8543 214.268 69.6303 214.268ZM77.3825 219.548V221H76.4945C75.7505 221 75.1785 220.82 74.7785 220.46C74.3865 220.1 74.1905 219.5 74.1905 218.66V215.78H73.2665V214.352H74.1905V212.708H75.8825V214.352H77.3705V215.78H75.8825V218.684C75.8825 219.004 75.9465 219.228 76.0745 219.356C76.2025 219.484 76.4185 219.548 76.7225 219.548H77.3825ZM84.852 217.424C84.852 217.592 84.832 217.784 84.792 218H79.92C79.944 218.592 80.104 219.028 80.4 219.308C80.696 219.588 81.064 219.728 81.504 219.728C81.896 219.728 82.22 219.632 82.476 219.44C82.74 219.248 82.908 218.988 82.98 218.66H84.768C84.68 219.124 84.492 219.54 84.204 219.908C83.916 220.276 83.544 220.564 83.088 220.772C82.64 220.98 82.14 221.084 81.588 221.084C80.94 221.084 80.364 220.948 79.86 220.676C79.356 220.396 78.964 220 78.684 219.488C78.404 218.976 78.264 218.372 78.264 217.676C78.264 216.98 78.404 216.376 78.684 215.864C78.964 215.344 79.356 214.948 79.86 214.676C80.364 214.404 80.94 214.268 81.588 214.268C82.244 214.268 82.816 214.404 83.304 214.676C83.8 214.948 84.18 215.324 84.444 215.804C84.716 216.276 84.852 216.816 84.852 217.424ZM83.148 217.256C83.172 216.712 83.028 216.3 82.716 216.02C82.412 215.74 82.036 215.6 81.588 215.6C81.132 215.6 80.748 215.74 80.436 216.02C80.124 216.3 79.952 216.712 79.92 217.256H83.148ZM88.6572 214.268C89.2172 214.268 89.6932 214.4 90.0852 214.664C90.4852 214.928 90.7732 215.284 90.9492 215.732V212.12H92.6292V221H90.9492V219.608C90.7732 220.056 90.4852 220.416 90.0852 220.688C89.6932 220.952 89.2172 221.084 88.6572 221.084C88.0972 221.084 87.5932 220.948 87.1452 220.676C86.6972 220.404 86.3452 220.012 86.0892 219.5C85.8412 218.98 85.7172 218.372 85.7172 217.676C85.7172 216.98 85.8412 216.376 86.0892 215.864C86.3452 215.344 86.6972 214.948 87.1452 214.676C87.5932 214.404 88.0972 214.268 88.6572 214.268ZM89.1852 215.744C88.6572 215.744 88.2332 215.916 87.9132 216.26C87.5932 216.604 87.4332 217.076 87.4332 217.676C87.4332 218.276 87.5932 218.748 87.9132 219.092C88.2332 219.428 88.6572 219.596 89.1852 219.596C89.6972 219.596 90.1172 219.424 90.4452 219.08C90.7812 218.728 90.9492 218.26 90.9492 217.676C90.9492 217.084 90.7812 216.616 90.4452 216.272C90.1172 215.92 89.6972 215.744 89.1852 215.744ZM99.8478 214.268C100.496 214.268 101.076 214.404 101.588 214.676C102.108 214.948 102.516 215.344 102.812 215.864C103.108 216.376 103.256 216.98 103.256 217.676C103.256 218.372 103.108 218.976 102.812 219.488C102.516 220 102.108 220.396 101.588 220.676C101.076 220.948 100.496 221.084 99.8478 221.084C99.1998 221.084 98.6158 220.948 98.0958 220.676C97.5838 220.396 97.1798 220 96.8838 219.488C96.5878 218.976 96.4398 218.372 96.4398 217.676C96.4398 216.98 96.5878 216.376 96.8838 215.864C97.1798 215.344 97.5838 214.948 98.0958 214.676C98.6158 214.404 99.1998 214.268 99.8478 214.268ZM99.8478 215.732C99.3758 215.732 98.9758 215.9 98.6478 216.236C98.3198 216.564 98.1558 217.044 98.1558 217.676C98.1558 218.308 98.3198 218.792 98.6478 219.128C98.9758 219.456 99.3758 219.62 99.8478 219.62C100.32 219.62 100.72 219.456 101.048 219.128C101.376 218.792 101.54 218.308 101.54 217.676C101.54 217.044 101.376 216.564 101.048 216.236C100.72 215.9 100.32 215.732 99.8478 215.732ZM107.344 219.308L109.024 214.352H110.824L108.364 221H106.3L103.84 214.352H105.652L107.344 219.308ZM118.016 217.424C118.016 217.592 117.996 217.784 117.956 218H113.084C113.108 218.592 113.268 219.028 113.564 219.308C113.86 219.588 114.228 219.728 114.668 219.728C115.06 219.728 115.384 219.632 115.64 219.44C115.904 219.248 116.072 218.988 116.144 218.66H117.932C117.844 219.124 117.656 219.54 117.368 219.908C117.08 220.276 116.708 220.564 116.252 220.772C115.804 220.98 115.304 221.084 114.752 221.084C114.104 221.084 113.528 220.948 113.024 220.676C112.52 220.396 112.128 220 111.848 219.488C111.568 218.976 111.428 218.372 111.428 217.676C111.428 216.98 111.568 216.376 111.848 215.864C112.128 215.344 112.52 214.948 113.024 214.676C113.528 214.404 114.104 214.268 114.752 214.268C115.408 214.268 115.98 214.404 116.468 214.676C116.964 214.948 117.344 215.324 117.608 215.804C117.88 216.276 118.016 216.816 118.016 217.424ZM116.312 217.256C116.336 216.712 116.192 216.3 115.88 216.02C115.576 215.74 115.2 215.6 114.752 215.6C114.296 215.6 113.912 215.74 113.6 216.02C113.288 216.3 113.116 216.712 113.084 217.256H116.312ZM120.909 215.624C121.157 215.2 121.485 214.868 121.893 214.628C122.301 214.38 122.757 214.256 123.261 214.256V216.068H122.769C121.529 216.068 120.909 216.644 120.909 217.796V221H119.217V214.352H120.909V215.624ZM132.667 213.848H128.647V215.984C128.831 215.768 129.083 215.596 129.403 215.468C129.731 215.332 130.091 215.264 130.483 215.264C131.067 215.264 131.551 215.392 131.935 215.648C132.327 215.896 132.615 216.232 132.799 216.656C132.991 217.072 133.087 217.536 133.087 218.048C133.087 218.952 132.831 219.676 132.319 220.22C131.815 220.764 131.091 221.036 130.147 221.036C129.531 221.036 128.995 220.928 128.539 220.712C128.083 220.488 127.727 220.18 127.471 219.788C127.215 219.388 127.075 218.924 127.051 218.396H128.695C128.759 218.756 128.907 219.044 129.139 219.26C129.371 219.468 129.679 219.572 130.063 219.572C130.527 219.572 130.871 219.432 131.095 219.152C131.327 218.864 131.443 218.484 131.443 218.012C131.443 217.564 131.323 217.216 131.083 216.968C130.843 216.72 130.503 216.596 130.063 216.596C129.743 216.596 129.471 216.668 129.247 216.812C129.023 216.948 128.859 217.132 128.755 217.364H127.111V212.36H132.667V213.848ZM137.441 221C135.281 221 134.201 219.564 134.201 216.692C134.201 213.828 135.281 212.396 137.441 212.396C138.585 212.396 139.409 212.78 139.913 213.548C140.417 214.316 140.669 215.364 140.669 216.692C140.669 218.028 140.417 219.08 139.913 219.848C139.409 220.616 138.585 221 137.441 221ZM138.677 218.708C138.893 218.236 139.001 217.564 139.001 216.692C139.001 215.828 138.893 215.164 138.677 214.7C138.469 214.228 138.057 213.992 137.441 213.992C136.817 213.992 136.397 214.228 136.181 214.7C135.973 215.164 135.869 215.828 135.869 216.692C135.869 217.564 135.973 218.236 136.181 218.708C136.397 219.172 136.817 219.404 137.441 219.404C138.057 219.404 138.469 219.172 138.677 218.708ZM145.023 221C142.863 221 141.783 219.564 141.783 216.692C141.783 213.828 142.863 212.396 145.023 212.396C146.167 212.396 146.991 212.78 147.495 213.548C147.999 214.316 148.251 215.364 148.251 216.692C148.251 218.028 147.999 219.08 147.495 219.848C146.991 220.616 146.167 221 145.023 221ZM146.259 218.708C146.475 218.236 146.583 217.564 146.583 216.692C146.583 215.828 146.475 215.164 146.259 214.7C146.051 214.228 145.639 213.992 145.023 213.992C144.399 213.992 143.979 214.228 143.763 214.7C143.555 215.164 143.451 215.828 143.451 216.692C143.451 217.564 143.555 218.236 143.763 218.708C143.979 219.172 144.399 219.404 145.023 219.404C145.639 219.404 146.051 219.172 146.259 218.708ZM155.257 217.508H153.013V219.788H151.381V217.508H149.137V215.96H151.381V213.668H153.013V215.96H155.257V217.508ZM164.799 218.684C164.799 219.116 164.691 219.516 164.475 219.884C164.259 220.244 163.939 220.536 163.515 220.76C163.091 220.976 162.575 221.084 161.967 221.084C161.367 221.084 160.831 220.984 160.359 220.784C159.887 220.576 159.507 220.28 159.219 219.896C158.939 219.512 158.779 219.064 158.739 218.552H160.539C160.579 218.896 160.715 219.184 160.947 219.416C161.187 219.64 161.503 219.752 161.895 219.752C162.247 219.752 162.515 219.66 162.699 219.476C162.891 219.284 162.987 219.04 162.987 218.744C162.987 218.48 162.911 218.264 162.759 218.096C162.607 217.92 162.415 217.78 162.183 217.676C161.951 217.572 161.631 217.452 161.223 217.316C160.695 217.14 160.263 216.968 159.927 216.8C159.591 216.624 159.303 216.372 159.063 216.044C158.831 215.716 158.715 215.288 158.715 214.76C158.715 214.032 158.975 213.46 159.495 213.044C160.023 212.62 160.719 212.408 161.583 212.408C162.479 212.408 163.191 212.624 163.719 213.056C164.255 213.488 164.559 214.064 164.631 214.784H162.807C162.759 214.48 162.631 214.232 162.423 214.04C162.215 213.84 161.931 213.74 161.571 213.74C161.259 213.74 161.007 213.824 160.815 213.992C160.623 214.152 160.527 214.388 160.527 214.7C160.527 214.948 160.599 215.156 160.743 215.324C160.895 215.484 161.083 215.616 161.307 215.72C161.539 215.824 161.851 215.94 162.243 216.068C162.787 216.26 163.227 216.44 163.563 216.608C163.907 216.776 164.199 217.028 164.439 217.364C164.679 217.7 164.799 218.14 164.799 218.684ZM172.405 214.352V221H170.713V219.656C170.537 220.104 170.245 220.456 169.837 220.712C169.437 220.96 168.973 221.084 168.445 221.084C167.677 221.084 167.065 220.832 166.609 220.328C166.153 219.824 165.925 219.12 165.925 218.216V214.352H167.605V218.024C167.605 218.552 167.741 218.964 168.013 219.26C168.285 219.548 168.653 219.692 169.117 219.692C169.605 219.692 169.993 219.536 170.281 219.224C170.569 218.912 170.713 218.464 170.713 217.88V214.352H172.405ZM176.548 214.268C177.108 214.268 177.584 214.4 177.976 214.664C178.376 214.928 178.664 215.284 178.84 215.732V212.12H180.52V221H178.84V219.608C178.664 220.056 178.376 220.416 177.976 220.688C177.584 220.952 177.108 221.084 176.548 221.084C175.988 221.084 175.484 220.948 175.036 220.676C174.588 220.404 174.236 220.012 173.98 219.5C173.732 218.98 173.608 218.372 173.608 217.676C173.608 216.98 173.732 216.376 173.98 215.864C174.236 215.344 174.588 214.948 175.036 214.676C175.484 214.404 175.988 214.268 176.548 214.268ZM177.076 215.744C176.548 215.744 176.124 215.916 175.804 216.26C175.484 216.604 175.324 217.076 175.324 217.676C175.324 218.276 175.484 218.748 175.804 219.092C176.124 219.428 176.548 219.596 177.076 219.596C177.588 219.596 178.008 219.424 178.336 219.08C178.672 218.728 178.84 218.26 178.84 217.676C178.84 217.084 178.672 216.616 178.336 216.272C178.008 215.92 177.588 215.744 177.076 215.744ZM188.305 217.424C188.305 217.592 188.285 217.784 188.245 218H183.373C183.397 218.592 183.557 219.028 183.853 219.308C184.149 219.588 184.517 219.728 184.957 219.728C185.349 219.728 185.673 219.632 185.929 219.44C186.193 219.248 186.361 218.988 186.433 218.66H188.221C188.133 219.124 187.945 219.54 187.657 219.908C187.369 220.276 186.997 220.564 186.541 220.772C186.093 220.98 185.593 221.084 185.041 221.084C184.393 221.084 183.817 220.948 183.313 220.676C182.809 220.396 182.417 220 182.137 219.488C181.857 218.976 181.717 218.372 181.717 217.676C181.717 216.98 181.857 216.376 182.137 215.864C182.417 215.344 182.809 214.948 183.313 214.676C183.817 214.404 184.393 214.268 185.041 214.268C185.697 214.268 186.269 214.404 186.757 214.676C187.253 214.948 187.633 215.324 187.897 215.804C188.169 216.276 188.305 216.816 188.305 217.424ZM186.601 217.256C186.625 216.712 186.481 216.3 186.169 216.02C185.865 215.74 185.489 215.6 185.041 215.6C184.585 215.6 184.201 215.74 183.889 216.02C183.577 216.3 183.405 216.712 183.373 217.256H186.601ZM193.466 214.256C194.234 214.256 194.846 214.508 195.302 215.012C195.758 215.516 195.986 216.224 195.986 217.136V221H194.306V217.328C194.306 216.8 194.17 216.392 193.898 216.104C193.626 215.808 193.254 215.66 192.782 215.66C192.302 215.66 191.918 215.816 191.63 216.128C191.342 216.44 191.198 216.888 191.198 217.472V221H189.506V214.352H191.198V215.684C191.374 215.236 191.662 214.888 192.062 214.64C192.47 214.384 192.938 214.256 193.466 214.256ZM201.027 219.548V221H200.139C199.395 221 198.823 220.82 198.423 220.46C198.031 220.1 197.835 219.5 197.835 218.66V215.78H196.911V214.352H197.835V212.708H199.527V214.352H201.015V215.78H199.527V218.684C199.527 219.004 199.591 219.228 199.719 219.356C199.847 219.484 200.063 219.548 200.367 219.548H201.027ZM204.537 214.268C205.345 214.268 205.993 214.472 206.481 214.88C206.969 215.288 207.273 215.832 207.393 216.512H205.809C205.745 216.192 205.601 215.936 205.377 215.744C205.153 215.552 204.861 215.456 204.501 215.456C204.213 215.456 203.989 215.524 203.829 215.66C203.669 215.796 203.589 215.98 203.589 216.212C203.589 216.396 203.653 216.544 203.781 216.656C203.909 216.768 204.069 216.856 204.261 216.92C204.453 216.984 204.729 217.06 205.089 217.148C205.593 217.26 206.001 217.38 206.313 217.508C206.633 217.628 206.905 217.824 207.129 218.096C207.361 218.36 207.477 218.72 207.477 219.176C207.477 219.744 207.253 220.204 206.805 220.556C206.365 220.908 205.769 221.084 205.017 221.084C204.153 221.084 203.461 220.892 202.941 220.508C202.421 220.116 202.105 219.56 201.993 218.84H203.613C203.653 219.168 203.797 219.428 204.045 219.62C204.293 219.804 204.617 219.896 205.017 219.896C205.305 219.896 205.525 219.828 205.677 219.692C205.829 219.548 205.905 219.364 205.905 219.14C205.905 218.948 205.837 218.792 205.701 218.672C205.573 218.552 205.409 218.46 205.209 218.396C205.017 218.332 204.741 218.256 204.381 218.168C203.885 218.056 203.481 217.944 203.169 217.832C202.865 217.712 202.601 217.524 202.377 217.268C202.161 217.012 202.053 216.66 202.053 216.212C202.053 215.636 202.273 215.168 202.713 214.808C203.153 214.448 203.761 214.268 204.537 214.268Z" fill="white"/>
<rect x="29" y="235" width="196" height="32" rx="3" fill="white"/>
<path d="M90.912 256.5L88.272 252.1H87.28V256.5H85.024V245.204H89.328C90.64 245.204 91.6373 245.524 92.32 246.164C93.0133 246.804 93.36 247.647 93.36 248.692C93.36 249.545 93.12 250.26 92.64 250.836C92.1707 251.412 91.488 251.796 90.592 251.988L93.408 256.5H90.912ZM87.28 250.548H89.136C90.4267 250.548 91.072 249.977 91.072 248.836C91.072 248.292 90.912 247.871 90.592 247.572C90.2827 247.263 89.7973 247.108 89.136 247.108H87.28V250.548ZM103.219 251.732C103.219 251.956 103.193 252.212 103.139 252.5H96.6434C96.6754 253.289 96.8887 253.871 97.2834 254.244C97.678 254.617 98.1687 254.804 98.7554 254.804C99.278 254.804 99.71 254.676 100.051 254.42C100.403 254.164 100.627 253.817 100.723 253.38H103.107C102.99 253.999 102.739 254.553 102.355 255.044C101.971 255.535 101.475 255.919 100.867 256.196C100.27 256.473 99.6034 256.612 98.8674 256.612C98.0034 256.612 97.2354 256.431 96.5634 256.068C95.8914 255.695 95.3687 255.167 94.9954 254.484C94.622 253.801 94.4354 252.996 94.4354 252.068C94.4354 251.14 94.622 250.335 94.9954 249.652C95.3687 248.959 95.8914 248.431 96.5634 248.068C97.2354 247.705 98.0034 247.524 98.8674 247.524C99.742 247.524 100.505 247.705 101.155 248.068C101.817 248.431 102.323 248.932 102.675 249.572C103.038 250.201 103.219 250.921 103.219 251.732ZM100.947 251.508C100.979 250.783 100.787 250.233 100.371 249.86C99.966 249.487 99.4647 249.3 98.8674 249.3C98.2594 249.3 97.7474 249.487 97.3314 249.86C96.9154 250.233 96.686 250.783 96.6434 251.508H100.947ZM108.293 247.524C109.04 247.524 109.68 247.7 110.213 248.052C110.746 248.404 111.125 248.879 111.349 249.476V247.636H113.589V256.5H111.349V254.644C111.125 255.241 110.746 255.721 110.213 256.084C109.68 256.436 109.04 256.612 108.293 256.612C107.546 256.612 106.874 256.431 106.277 256.068C105.68 255.705 105.21 255.183 104.869 254.5C104.538 253.807 104.373 252.996 104.373 252.068C104.373 251.14 104.538 250.335 104.869 249.652C105.21 248.959 105.68 248.431 106.277 248.068C106.874 247.705 107.546 247.524 108.293 247.524ZM108.997 249.492C108.293 249.492 107.728 249.721 107.301 250.18C106.874 250.639 106.661 251.268 106.661 252.068C106.661 252.868 106.874 253.497 107.301 253.956C107.728 254.404 108.293 254.628 108.997 254.628C109.68 254.628 110.24 254.399 110.677 253.94C111.125 253.471 111.349 252.847 111.349 252.068C111.349 251.279 111.125 250.655 110.677 250.196C110.24 249.727 109.68 249.492 108.997 249.492ZM119.105 247.524C119.852 247.524 120.487 247.7 121.009 248.052C121.543 248.404 121.927 248.879 122.161 249.476V244.66H124.401V256.5H122.161V254.644C121.927 255.241 121.543 255.721 121.009 256.084C120.487 256.436 119.852 256.612 119.105 256.612C118.359 256.612 117.687 256.431 117.089 256.068C116.492 255.705 116.023 255.183 115.681 254.5C115.351 253.807 115.185 252.996 115.185 252.068C115.185 251.14 115.351 250.335 115.681 249.652C116.023 248.959 116.492 248.431 117.089 248.068C117.687 247.705 118.359 247.524 119.105 247.524ZM119.809 249.492C119.105 249.492 118.54 249.721 118.113 250.18C117.687 250.639 117.473 251.268 117.473 252.068C117.473 252.868 117.687 253.497 118.113 253.956C118.54 254.404 119.105 254.628 119.809 254.628C120.492 254.628 121.052 254.399 121.489 253.94C121.937 253.471 122.161 252.847 122.161 252.068C122.161 251.279 121.937 250.655 121.489 250.196C121.052 249.727 120.492 249.492 119.809 249.492ZM142.106 245.332V256.5H139.866V248.708L137.002 256.5H135.05L132.186 248.74V256.5H129.93V245.332H132.666L136.058 253.732L139.386 245.332H142.106ZM148.245 247.524C149.109 247.524 149.882 247.705 150.565 248.068C151.258 248.431 151.802 248.959 152.197 249.652C152.592 250.335 152.789 251.14 152.789 252.068C152.789 252.996 152.592 253.801 152.197 254.484C151.802 255.167 151.258 255.695 150.565 256.068C149.882 256.431 149.109 256.612 148.245 256.612C147.381 256.612 146.602 256.431 145.909 256.068C145.226 255.695 144.688 255.167 144.293 254.484C143.898 253.801 143.701 252.996 143.701 252.068C143.701 251.14 143.898 250.335 144.293 249.652C144.688 248.959 145.226 248.431 145.909 248.068C146.602 247.705 147.381 247.524 148.245 247.524ZM148.245 249.476C147.616 249.476 147.082 249.7 146.645 250.148C146.208 250.585 145.989 251.225 145.989 252.068C145.989 252.911 146.208 253.556 146.645 254.004C147.082 254.441 147.616 254.66 148.245 254.66C148.874 254.66 149.408 254.441 149.845 254.004C150.282 253.556 150.501 252.911 150.501 252.068C150.501 251.225 150.282 250.585 149.845 250.148C149.408 249.7 148.874 249.476 148.245 249.476ZM156.639 249.332C156.97 248.767 157.407 248.324 157.951 248.004C158.495 247.673 159.103 247.508 159.775 247.508V249.924H159.119C157.466 249.924 156.639 250.692 156.639 252.228V256.5H154.383V247.636H156.639V249.332ZM169.36 251.732C169.36 251.956 169.333 252.212 169.28 252.5H162.784C162.816 253.289 163.029 253.871 163.424 254.244C163.819 254.617 164.309 254.804 164.896 254.804C165.419 254.804 165.851 254.676 166.192 254.42C166.544 254.164 166.768 253.817 166.864 253.38H169.248C169.131 253.999 168.88 254.553 168.496 255.044C168.112 255.535 167.616 255.919 167.008 256.196C166.411 256.473 165.744 256.612 165.008 256.612C164.144 256.612 163.376 256.431 162.704 256.068C162.032 255.695 161.509 255.167 161.136 254.484C160.763 253.801 160.576 252.996 160.576 252.068C160.576 251.14 160.763 250.335 161.136 249.652C161.509 248.959 162.032 248.431 162.704 248.068C163.376 247.705 164.144 247.524 165.008 247.524C165.883 247.524 166.645 247.705 167.296 248.068C167.957 248.431 168.464 248.932 168.816 249.572C169.179 250.201 169.36 250.921 169.36 251.732ZM167.088 251.508C167.12 250.783 166.928 250.233 166.512 249.86C166.107 249.487 165.605 249.3 165.008 249.3C164.4 249.3 163.888 249.487 163.472 249.86C163.056 250.233 162.827 250.783 162.784 251.508H167.088Z" fill="#565ADD"/>
<path d="M125.894 90.0029L125.893 90.0039C126.405 90.0207 127.252 90.2232 127.773 91.0586C128.103 91.5865 128.14 92.1192 128.093 92.5293C129.263 91.5991 130.625 91.0468 132.156 90.9355H132.158C133.437 90.8437 134.721 90.8522 135.998 90.9609L135.997 90.9619C138.801 91.1983 141.482 91.9117 144.04 93.0479C151.376 96.3061 157.049 102.668 159.576 110.426C160.139 112.155 160.537 113.936 160.765 115.743V115.744C160.975 117.417 161.044 119.107 160.973 120.792C160.826 124.29 160.151 127.677 158.983 130.952C157.356 135.518 154.911 139.575 151.696 143.13C148.978 146.136 145.88 148.629 142.469 150.68L141.782 151.084C137.767 153.4 133.5 155.04 128.988 156.003L128.989 156.004C127.562 156.309 126.123 156.541 124.673 156.701L124.674 156.702C123.047 156.882 121.355 156.98 119.706 157H119.656L119.605 156.999C118.951 156.974 118.207 156.958 117.465 156.925L116.727 156.885C113.316 156.657 109.946 156.019 106.666 154.799C104.919 154.149 103.223 153.34 101.609 152.317C98.4973 150.346 96.0228 147.734 94.124 144.585C92.6494 142.14 91.6199 139.521 90.9463 136.778C90.5799 135.287 90.3214 133.769 90.1738 132.238L90.1191 131.622C90.0028 130.184 89.9672 128.735 90.0322 127.273C90.3639 119.813 92.7224 113.065 96.9102 107.018C99.2993 103.569 102.186 100.631 105.47 98.1338C109.266 95.2464 113.423 93.0692 117.932 91.6074L117.938 91.6045V91.6055C119.778 91.0156 121.657 90.5638 123.561 90.2539C124.023 90.178 124.491 90.1075 124.964 90.0469H124.966C125.273 90.0077 125.584 89.9926 125.894 90.0029ZM126.267 95.2559C125.895 95.5586 125.494 95.8248 125.066 96.0459L125.065 96.0449C124.271 96.4584 123.411 96.7265 122.522 96.833L122.521 96.832C119.62 97.1836 116.85 97.9302 114.223 99.1572V99.1582C113.477 99.5064 112.755 99.9247 111.931 100.398C109.415 101.844 107.253 103.784 105.332 106.104C102.811 109.149 100.975 112.613 99.7295 116.449L99.7305 116.45C99.1564 118.224 98.7315 120.046 98.4609 121.896L98.46 121.898C98.1658 123.885 98.0638 125.896 98.1553 127.903C98.3012 131.093 98.9225 134.144 100.12 137.041C100.803 138.694 101.655 140.233 102.693 141.648C104.419 144.001 106.553 145.812 109.113 147.103C110.667 147.883 112.3 148.484 114.004 148.948L114.521 149.085C115.729 149.394 116.954 149.635 118.188 149.808L118.894 149.898C119.601 149.982 120.315 150.045 121.035 150.09L121.901 150.131C122.77 150.16 123.649 150.155 124.541 150.129C125.469 150.101 126.409 150.019 127.368 149.904L128.194 149.795C130.119 149.519 132.021 149.091 133.884 148.514L133.887 148.513C135.857 147.904 137.754 147.055 139.609 146.026L139.961 145.822C140.309 145.611 140.647 145.382 140.974 145.135L140.977 145.133C141.626 144.643 142.126 144.294 142.667 143.861C145.026 141.973 146.972 139.679 148.569 137.026C150.322 134.117 151.538 130.98 152.244 127.619C152.487 126.46 152.662 125.287 152.766 124.105V124.104C152.881 122.797 152.901 121.483 152.825 120.174L152.792 119.689C152.409 114.702 150.676 110.294 147.58 106.412L147.175 105.918C145.123 103.481 142.711 101.527 139.921 100.062C138.155 99.1359 136.313 98.4696 134.385 98.0811C133.311 97.8646 132.253 97.7341 131.207 97.7158L130.759 97.7148C130.537 97.718 130.341 97.7286 130.124 97.7432L129.366 97.793C129.168 97.8038 128.972 97.8082 128.803 97.8135L128.804 97.8145C128.802 97.8145 128.8 97.8144 128.799 97.8145C128.791 97.8147 128.782 97.8152 128.774 97.8154L128.773 97.8145C128.629 97.8197 128.484 97.8161 128.34 97.8008L128.307 97.7969C127.943 97.752 127.116 97.5733 126.595 96.7568C126.249 96.2159 126.214 95.6723 126.267 95.2559Z" fill="white" stroke="#565ADD" stroke-width="4"/>
<path d="M123.493 123.642C123.373 123.685 123.272 123.717 123.173 123.755C120.424 124.797 117.771 126.083 115.246 127.598C114.953 127.775 114.952 127.72 114.905 128.122C114.768 129.301 114.618 130.479 114.486 131.659C114.402 132.42 114.337 133.184 114.27 133.948C114.189 134.873 114.113 135.798 114.041 136.724C113.984 137.445 113.937 138.167 113.887 138.888C113.829 139.739 113.773 140.59 113.717 141.441C113.691 141.829 113.659 142.217 113.644 142.605C113.628 143.007 113.431 143.266 113.076 143.429C112.684 143.609 112.276 143.731 111.857 143.814C111.396 143.906 110.933 143.985 110.462 143.998C110.087 144.008 109.715 143.989 109.355 143.868C108.999 143.748 108.907 143.593 108.939 143.212C108.994 142.535 109.043 141.856 109.091 141.178C109.174 140.015 109.253 138.852 109.337 137.689C109.384 137.032 109.432 136.375 109.488 135.719C109.559 134.901 109.635 134.085 109.716 133.268C109.798 132.452 109.889 131.637 109.975 130.821C109.979 130.79 109.97 130.758 109.964 130.704C109.879 130.682 109.79 130.652 109.699 130.635C109.013 130.508 108.402 130.216 107.858 129.779C107.63 129.599 107.434 129.381 107.278 129.135C107.158 128.942 107.072 128.73 107.025 128.508C106.956 128.197 107.033 127.931 107.227 127.692C107.377 127.506 107.563 127.361 107.761 127.231C108.655 126.642 109.55 126.054 110.445 125.467C110.765 125.258 110.764 125.261 110.829 124.894C111.518 121.019 112.457 117.212 113.84 113.527C114.588 111.537 115.422 109.586 116.459 107.73C116.642 107.401 116.83 107.073 117.039 106.761C117.952 105.4 119.217 104.564 120.794 104.201C121.431 104.054 122.076 103.977 122.731 104.006C123.136 104.024 123.538 104.069 123.932 104.18C124.661 104.387 125.132 104.859 125.349 105.587C125.428 105.856 125.486 106.13 125.523 106.408C125.603 107.008 125.662 107.609 125.732 108.21C125.823 108.992 125.908 109.776 126.012 110.556C126.142 111.53 126.279 112.503 126.433 113.472C126.645 114.805 126.862 116.136 127.101 117.463C127.471 119.523 127.9 121.572 128.37 123.611C129.106 126.808 129.949 129.975 130.898 133.113C130.926 133.206 130.956 133.299 130.982 133.392C131.03 133.568 130.983 133.718 130.838 133.821C130.716 133.906 130.587 133.992 130.449 134.041C130.168 134.14 129.882 134.235 129.59 134.294C129.099 134.393 128.604 134.476 128.107 134.542C127.705 134.595 127.298 134.599 126.896 134.52C126.812 134.503 126.73 134.479 126.65 134.45C126.569 134.421 126.496 134.375 126.433 134.315C126.371 134.255 126.322 134.183 126.289 134.103C126.251 134.014 126.219 133.922 126.193 133.828C125.887 132.75 125.578 131.672 125.277 130.592C124.675 128.431 124.126 126.256 123.629 124.068C123.599 123.934 123.593 123.79 123.493 123.642ZM120.85 107.85C120.808 107.916 120.758 107.982 120.721 108.055C120.474 108.546 120.222 109.034 119.987 109.53C118.733 112.173 117.749 114.92 116.965 117.74C116.56 119.195 116.207 120.662 115.907 122.143C115.891 122.225 115.85 122.308 115.919 122.409C116.002 122.374 116.09 122.341 116.175 122.302C116.574 122.119 116.969 121.931 117.369 121.751C119.017 121.009 120.696 120.35 122.414 119.792C122.503 119.764 122.588 119.725 122.658 119.697C122.665 119.677 122.671 119.657 122.675 119.637C122.677 119.616 122.678 119.594 122.678 119.572C122.677 119.551 122.675 119.529 122.671 119.507C122.573 118.988 122.471 118.47 122.378 117.949C121.868 115.114 121.453 112.264 121.101 109.405C121.068 109.137 121.038 108.869 121.007 108.601C120.982 108.386 120.957 108.172 120.932 107.958C120.929 107.937 120.923 107.916 120.916 107.896C120.912 107.886 120.906 107.878 120.898 107.871C120.883 107.863 120.867 107.855 120.85 107.85Z" fill="white"/>
<path d="M140.276 113.999C140.429 113.942 140.535 113.904 140.64 113.862C141.805 113.395 142.989 112.988 144.193 112.639C145.487 112.262 146.579 112.627 147.5 113.588C147.838 113.94 148.012 114.376 147.999 114.881C147.99 115.243 147.83 115.512 147.517 115.671C147.35 115.755 147.175 115.822 146.996 115.87C145.305 116.331 143.67 116.954 142.065 117.665C141.866 117.753 141.668 117.844 141.471 117.937C141.407 117.967 141.348 118.009 141.294 118.04C141.265 118.19 141.329 118.306 141.364 118.425C141.881 120.188 142.489 121.922 143.186 123.62C143.378 124.088 143.585 124.549 143.784 125.015C143.846 125.16 143.913 125.305 143.954 125.457C144.038 125.758 143.909 125.958 143.602 125.993C143.451 126.009 143.292 125.996 143.141 125.969C142.624 125.877 142.155 125.657 141.72 125.363C140.975 124.86 140.431 124.181 140.063 123.352C139.589 122.282 139.152 121.197 138.753 120.095C138.685 119.908 138.614 119.722 138.55 119.55C138.434 119.505 138.369 119.573 138.302 119.615C137.66 120.021 137.02 120.429 136.38 120.838C136.205 120.95 136.033 121.067 135.854 121.175C135.455 121.415 135.021 121.491 134.569 121.418C133.671 121.275 132.937 120.838 132.392 120.087C132.218 119.847 132.088 119.583 132.026 119.288C131.947 118.91 132.044 118.597 132.349 118.36C132.415 118.309 132.483 118.261 132.552 118.214C133.955 117.24 135.416 116.356 136.926 115.567C137.017 115.519 137.108 115.467 137.198 115.415C137.214 115.406 137.224 115.384 137.249 115.354C137.23 115.264 137.212 115.161 137.186 115.061C136.717 113.271 136.345 111.46 136.051 109.632C136.035 109.538 136.027 109.443 136.026 109.348C136.026 109.155 136.104 109.044 136.289 109.014C136.429 108.991 136.576 109.001 136.72 109.01C136.801 109.015 136.883 109.039 136.961 109.066C137.703 109.321 138.394 109.67 138.971 110.225C139.069 110.318 139.16 110.42 139.25 110.521C139.574 110.881 139.775 111.304 139.861 111.785C139.966 112.367 140.069 112.95 140.174 113.533C140.203 113.676 140.237 113.818 140.276 113.999Z" fill="white"/>
<defs>
<clipPath id="clip0_550_72">
<rect width="147" height="40" fill="white" transform="translate(52 162)"/>
</clipPath>
<clipPath id="clip1_550_72">
<rect width="28" height="41.3636" fill="white" transform="translate(223 63)"/>
</clipPath>
</defs>
</svg>
