<svg width="176" height="177" viewBox="0 0 176 177" fill="none" xmlns="http://www.w3.org/2000/svg">
<path d="M54.0238 8.78325C55.3132 9.81963 56.301 11.183 56.8839 12.7312" stroke="#AEAEAE" stroke-width="0.435644" stroke-linecap="round" stroke-linejoin="round"/>
<path d="M39.1576 13.6803C39.5267 12.2619 40.2256 10.9507 41.1973 9.85338C42.169 8.75608 43.3861 7.90374 44.7494 7.36572C46.1128 6.8277 47.584 6.61922 49.0431 6.75723C50.5023 6.89525 51.9083 7.37586 53.1466 8.15996" stroke="#AEAEAE" stroke-width="0.435644" stroke-linecap="round" stroke-linejoin="round"/>
<path d="M42.0679 23.0369C40.3904 21.5804 39.2923 19.5694 38.9739 17.3708" stroke="#AEAEAE" stroke-width="0.435644" stroke-linecap="round" stroke-linejoin="round"/>
<path d="M47.8157 25.3276C46.114 25.2634 44.463 24.731 43.0443 23.7891" stroke="#AEAEAE" stroke-width="0.435644" stroke-linecap="round" stroke-linejoin="round"/>
<path d="M57.3852 14.6699C57.5628 15.8791 57.5004 17.1114 57.2015 18.2965C56.9026 19.4815 56.3731 20.5961 55.6433 21.5764C54.9135 22.5567 53.9976 23.3836 52.9481 24.0099C51.8986 24.6361 50.7359 25.0494 49.5266 25.2261" stroke="#AEAEAE" stroke-width="0.435644" stroke-linecap="round" stroke-linejoin="round"/>
<path d="M30.641 49.5499C32.1333 51.4379 33.0952 53.6896 33.4278 56.0731" stroke="#AEAEAE" stroke-width="0.435644" stroke-linecap="round" stroke-linejoin="round"/>
<path d="M7.99561 51.7191C8.97508 49.8259 10.3878 48.1907 12.1188 46.9467C13.8498 45.7028 15.8501 44.8852 17.9568 44.5605C20.0636 44.2358 22.2172 44.4133 24.2424 45.0784C26.2676 45.7435 28.1071 46.8775 29.6111 48.388" stroke="#AEAEAE" stroke-width="0.435644" stroke-linecap="round" stroke-linejoin="round"/>
<path d="M9.09535 65.9197C7.18297 63.3134 6.27189 60.1061 6.52851 56.8837" stroke="#AEAEAE" stroke-width="0.435644" stroke-linecap="round" stroke-linejoin="round"/>
<path d="M16.5332 71.0071C14.1355 70.3754 11.9584 69.0945 10.2416 67.3054" stroke="#AEAEAE" stroke-width="0.435644" stroke-linecap="round" stroke-linejoin="round"/>
<path d="M33.5173 58.9836C33.3797 60.7554 32.8945 62.4828 32.0893 64.0671C31.2841 65.6514 30.1747 67.0616 28.8245 68.2172C27.4743 69.3728 25.9098 70.2511 24.2201 70.802C22.5305 71.3529 20.7489 71.5656 18.9771 71.428" stroke="#AEAEAE" stroke-width="0.435644" stroke-linecap="round" stroke-linejoin="round"/>
<path d="M108.229 2.95095C106.889 1.70845 105.242 0.845764 103.458 0.451835" stroke="#AEAEAE" stroke-width="0.435644" stroke-linecap="round" stroke-linejoin="round"/>
<path d="M105.251 19.9904C106.744 19.3593 108.067 18.3845 109.112 17.1454C110.157 15.9063 110.895 14.4379 111.265 12.8597C111.635 11.2816 111.628 9.63832 111.243 8.06371C110.858 6.4891 110.106 5.02767 109.05 3.79839" stroke="#AEAEAE" stroke-width="0.435644" stroke-linecap="round" stroke-linejoin="round"/>
<path d="M94.5501 18.3182C96.4121 19.9214 98.7883 20.8019 101.245 20.7992" stroke="#AEAEAE" stroke-width="0.435644" stroke-linecap="round" stroke-linejoin="round"/>
<path d="M91.1281 12.4112C91.473 14.2621 92.3203 15.9826 93.5772 17.3844" stroke="#AEAEAE" stroke-width="0.435644" stroke-linecap="round" stroke-linejoin="round"/>
<path d="M101.246 0.217822C98.5166 0.218424 95.8994 1.303 93.9698 3.23303C92.0402 5.16306 90.9562 7.78048 90.9562 10.5096" stroke="#AEAEAE" stroke-width="0.435644" stroke-linecap="round" stroke-linejoin="round"/>
<path d="M50.03 39.9631C48.5732 38.6596 47.0627 39.2308 46.2882 39.687C46.1349 38.8014 45.5828 37.2832 43.6467 37.0034C41.542 36.7235 39.8129 38.7746 40.3842 41.6308C40.7944 43.6857 42.1055 45.5681 42.811 46.4575C42.8953 46.5649 42.972 46.6607 43.0372 46.7336H43.3937C44.5438 46.6876 46.8096 46.4614 48.6345 45.4339C51.1725 44.0192 51.6095 41.3777 50.03 39.9631Z" stroke="#AEAEAE" stroke-width="0.435644" stroke-linecap="round" stroke-linejoin="round"/>
<path d="M41.8454 48.0906C41.8454 48.0906 41.7419 48.2785 41.6039 48.6082" stroke="#AEAEAE" stroke-width="0.435644" stroke-linecap="round" stroke-linejoin="round"/>
<path d="M41.2241 49.6702C40.6643 51.5603 40.3308 54.704 43.3403 56.6247C50.9006 61.4438 53.4424 50.0728 47.6533 51.0964C43.6854 51.7941 47.8565 62.2643 54.0635 60.2323" stroke="#AEAEAE" stroke-width="0.435644" stroke-linecap="round" stroke-linejoin="round" stroke-dasharray="1.29 1.29"/>
<path d="M54.596 60.0293C54.7647 59.9564 54.9372 59.8721 55.1098 59.7801" stroke="#AEAEAE" stroke-width="0.435644" stroke-linecap="round" stroke-linejoin="round"/>
<path d="M40.7724 161.376C40.7724 161.376 34.5342 165.618 32.0232 165.333C31.7479 165.321 31.4858 165.211 31.2833 165.024C29.6467 163.343 28.3295 160.361 28.3295 160.361C28.3295 160.361 29.1086 159.279 31.5187 162.149L33.0489 160.748L29.8709 157.57C29.8709 157.57 31.6476 156.157 34.6687 157.957C33.3721 154.697 33.1753 151.104 34.1082 147.722L26.7434 140.632L33.2618 134.977L33.7607 134.539C33.7607 134.539 34.1754 134.949 34.8368 135.576C35.4982 136.204 36.3613 136.994 37.3254 137.818C39.6234 139.836 42.4034 142.027 43.6085 142.005C45.8392 141.955 40.7724 161.376 40.7724 161.376Z" fill="white"/>
<mask id="mask0_2_125" style="mask-type:luminance" maskUnits="userSpaceOnUse" x="26" y="134" width="19" height="32">
<path d="M40.7724 161.376C40.7724 161.376 34.5342 165.618 32.0232 165.333C31.7479 165.321 31.4858 165.211 31.2833 165.024C29.6467 163.343 28.3295 160.361 28.3295 160.361C28.3295 160.361 29.1086 159.279 31.5187 162.149L33.0489 160.748L29.8709 157.57C29.8709 157.57 31.6476 156.157 34.6687 157.957C33.3721 154.697 33.1753 151.104 34.1082 147.722L26.7434 140.632L33.2618 134.977L33.7607 134.539C33.7607 134.539 34.1754 134.949 34.8368 135.576C35.4982 136.204 36.3613 136.994 37.3254 137.818C39.6234 139.836 42.4034 142.027 43.6085 142.005C45.8392 141.955 40.7724 161.376 40.7724 161.376Z" fill="white"/>
</mask>
<g mask="url(#mask0_2_125)">
<path opacity="0.4" d="M35.952 158.59C35.952 158.59 32.3985 162.255 32.0286 165.316C31.7533 165.304 31.4912 165.194 31.2887 165.007C29.6521 163.326 28.335 160.344 28.335 160.344C28.335 160.344 29.114 159.262 31.5241 162.132L33.0543 160.731L29.8707 157.57C29.8707 157.57 31.6475 156.157 34.6685 157.957C33.3719 154.697 33.1751 151.104 34.108 147.722L26.7432 140.632L33.2617 134.977L34.8366 135.576C35.4812 136.182 36.3612 136.994 37.3252 137.818C35.9464 139.842 32.9926 144.023 32.9926 144.023L35.5428 147.487C35.5428 147.487 33.9959 156.213 35.952 158.59Z" fill="#565ADD"/>
</g>
<path d="M40.7724 161.376C40.7724 161.376 34.5342 165.618 32.0232 165.333C31.7479 165.321 31.4858 165.211 31.2833 165.024C29.6467 163.343 28.3295 160.361 28.3295 160.361C28.3295 160.361 29.1086 159.279 31.5187 162.149L33.0489 160.748L29.8709 157.57C29.8709 157.57 31.6476 156.157 34.6687 157.957C33.3721 154.697 33.1753 151.104 34.1082 147.722L26.7434 140.632L33.2618 134.977L33.7607 134.539C33.7607 134.539 34.1754 134.949 34.8368 135.576C35.4982 136.204 36.3613 136.994 37.3254 137.818C39.6234 139.836 42.4034 142.027 43.6085 142.005C45.8392 141.955 40.7724 161.376 40.7724 161.376Z" stroke="#263238" stroke-width="0.435644" stroke-linecap="round" stroke-linejoin="round"/>
<path d="M33.048 160.759C33.3948 159.721 33.9541 158.766 34.6903 157.956" stroke="#263238" stroke-width="0.435644" stroke-linecap="round" stroke-linejoin="round"/>
<path d="M149.462 111.946C148.478 113.381 147.289 114.663 145.931 115.751C134.452 125.257 108.003 129.932 108.003 129.932C108.003 129.932 107.117 131.26 105.761 133.149C103.311 136.546 99.3094 141.758 96.0417 144.359C94.6629 145.48 93.4131 146.107 92.4714 145.934L97.4318 164.267L99.6737 172.226C99.6737 172.226 76.8618 182.175 37.8518 170.791C37.8518 170.791 37.409 165.702 37.7397 164.626C37.7397 164.576 37.7733 164.525 37.7958 164.469C38.1888 163.745 38.7047 163.094 39.3203 162.547C39.3203 162.547 39.1017 159.273 38.9952 155.938C38.8683 153.815 38.8945 151.685 39.0737 149.566C39.3483 147.884 40.5814 143.821 41.1979 141.825C41.4165 141.119 41.5623 140.665 41.5623 140.665L39.6174 122.489L39.0569 117.248C39.0569 117.248 39.0569 117.153 39.0569 116.979C39.0569 116.94 39.0569 116.9 39.0569 116.85L38.7542 114.048L28.7215 117.108C28.7215 117.108 29.2539 118.285 29.9713 119.91C31.2885 122.926 33.2278 127.522 33.6594 129.338C33.69 129.486 33.7312 129.632 33.7827 129.775C34.7187 132.426 38.2666 134.819 38.2666 134.819L28.7383 145.923L25.9358 143.961C25.5815 144.227 25.2067 144.465 24.8148 144.673C23.3086 145.545 21.6065 146.022 19.8665 146.062C18.1264 146.101 16.4046 145.7 14.8606 144.897C13.0159 143.866 11.4157 142.45 10.1693 140.744C2.67555 131.047 -0.536051 123.15 0.517668 113.84C1.57139 104.53 43.3054 75.9511 51.5894 76.2482L63.9201 78.9666C64.1836 78.748 64.9066 78.1763 65.4615 78.2043C67.7034 78.322 67.7595 80.9227 67.7595 80.9227L95.3636 85.4066C95.3636 85.4066 98.2221 83.9717 98.7265 83.9942C99.0878 84.0197 99.4368 84.1358 99.7414 84.3317C100.046 84.5276 100.296 84.797 100.47 85.1151C100.47 85.1151 107.621 80.833 109.925 81.8307C117.396 85.1544 155.05 103.454 149.462 111.946Z" fill="#565ADD"/>
<path opacity="0.2" d="M53.557 157.318C50.4301 160.76 46.2305 163.044 41.641 163.797C40.1894 164.027 38.9115 164.262 37.7961 164.492C38.1892 163.768 38.705 163.117 39.3206 162.569C39.3206 162.569 39.102 159.296 38.9955 155.961C42.2015 158.08 47.8457 160.546 53.557 157.318Z" fill="black"/>
<path opacity="0.2" d="M41.1696 141.848C41.3882 141.142 41.534 140.688 41.534 140.688L39.5891 122.511C42.4924 126.67 52.839 140.85 59.974 142.38C67.4229 143.978 47.492 146.797 41.1696 141.848Z" fill="black"/>
<path opacity="0.2" d="M97.421 164.301C89.6358 163.415 78.6334 161.448 77.5124 157.396C75.7973 151.023 84.1486 147.206 96.0085 144.415C94.6297 145.536 93.3799 146.164 92.4382 145.99L97.421 164.301Z" fill="black"/>
<path opacity="0.2" d="M145.926 115.757C134.452 125.257 108.003 129.932 108.003 129.932C108.003 129.932 107.117 131.26 105.761 133.149C101.865 123.858 101.272 113.512 104.079 103.836C104.079 103.836 106.114 114.872 114.572 117.495C114.572 117.495 108.098 112.674 110.357 101.067C110.357 101.067 112.565 114.726 126.942 118.498C133.925 120.353 140.752 118.324 145.926 115.757Z" fill="black"/>
<path opacity="0.2" d="M39.0071 117.001L38.6876 114.064L28.6549 117.125C28.6549 117.125 29.1873 118.302 29.9048 119.927C26.0654 119.529 18.7847 123.094 17.518 119.215C15.9822 114.53 25.4096 116.144 25.4096 116.144L34.299 110.971C32.6175 103.785 36.8941 98.382 36.8941 98.382L37.7068 103.393C38.0991 93.8644 41.8264 88.6463 41.8264 88.6463C38.7213 96.2073 38.839 114.765 39.0071 117.001Z" fill="black"/>
<path opacity="0.2" d="M38.1826 134.876L28.6543 145.979L25.8518 144.017C25.4975 144.284 25.1227 144.522 24.7308 144.729C23.2246 145.601 21.5225 146.079 19.7825 146.118C18.0424 146.157 16.3206 145.757 14.7766 144.953C17.8593 140.693 24.2152 134.427 31.7874 132C29.9186 134.764 28.2335 137.647 26.743 140.632L28.6935 142.554C28.6935 142.554 33.5641 137 38.1826 134.876Z" fill="black"/>
<path opacity="0.2" d="M61.2576 85.9615C61.2576 86.9423 60.641 98.0512 68.7233 100.988C76.8055 103.925 83.991 98.9424 83.991 98.9424C83.991 98.9424 71.593 110.875 64.06 104.508C56.527 98.1409 61.2576 85.9615 61.2576 85.9615Z" fill="black"/>
<path d="M37.8236 170.847C37.8236 170.847 37.3864 165.758 37.7115 164.682C37.9805 163.774 39.2921 162.603 39.2921 162.603C39.2921 162.603 38.6027 152.284 39.0455 149.622C39.421 147.341 41.534 140.721 41.534 140.721L38.6868 114.098L28.654 117.164C28.654 117.164 32.9249 126.603 33.5863 129.411C34.2477 132.219 38.1823 134.909 38.1823 134.909L28.654 146.012L25.8516 144.051C25.8516 144.051 17.5563 150.535 10.0682 140.833C2.58008 131.131 -0.637125 123.24 0.410988 113.93C1.4591 104.62 43.2099 76.0465 51.4883 76.3379L63.8191 79.0619C64.0825 78.8433 64.8055 78.2716 65.3604 78.2996C67.6024 78.4173 67.6584 81.018 67.6584 81.018L95.2625 85.5019C95.2625 85.5019 98.1266 84.067 98.6254 84.0951C98.9868 84.1201 99.3361 84.236 99.6408 84.4319C99.9455 84.6279 100.196 84.8976 100.369 85.216C100.369 85.216 107.515 80.9339 109.824 81.9316C117.379 85.1936 155.039 103.494 149.451 111.985C141.52 124.041 107.974 129.988 107.974 129.988C107.974 129.988 96.8206 146.803 92.432 146.007L99.6119 172.299" stroke="#263238" stroke-width="0.435644" stroke-linecap="round" stroke-linejoin="round"/>
<path d="M120.294 113.784C132.961 122.158 143.168 120.605 151.166 109.861C151.166 109.861 157.819 101.285 157.331 92.026C156.843 82.7667 154.663 52.5844 125.826 60.2855C121.079 61.5522 110.003 76.3883 109.067 80.4631C108.641 82.3239 104.191 91.8074 99.8754 101.627" fill="#565ADD"/>
<path d="M120.294 113.784C132.961 122.158 143.168 120.605 151.166 109.861C151.166 109.861 157.819 101.285 157.331 92.026C156.843 82.7667 154.663 52.5844 125.826 60.2855C121.079 61.5522 110.003 76.3883 109.067 80.4631C108.641 82.3239 104.191 91.8074 99.8754 101.627" stroke="#263238" stroke-width="0.435644" stroke-linecap="round" stroke-linejoin="round"/>
<path d="M86.0149 25.1204C86.0149 25.1204 94.0859 23.8986 99.6964 28.915C106.781 35.2597 114.74 52.3658 103.407 80.7209C103.407 80.7209 86.6594 69.6008 58.0801 77.0385C58.0801 77.0385 60.5407 70.3855 56.2193 49.4513C54.2688 39.9958 59.1787 18.176 86.0149 25.1204Z" fill="#263238"/>
<path d="M73.7795 96.3025C85.7235 98.2362 98.441 85.0142 98.441 85.0142C98.441 85.0142 91.9449 84.2127 91.362 81.1693C89.5012 71.5457 96.9949 59.6689 96.9949 59.6689C96.9949 59.6689 67.984 60.4312 73.0284 67.0057C73.9724 68.2008 74.7458 69.5213 75.3264 70.9292C77.0808 75.2449 75.8869 78.507 74.9285 79.3029C74.8615 79.3554 74.7902 79.4022 74.7155 79.443C72.9612 80.2445 65.7477 79.0506 65.7477 79.0506C65.7477 79.0506 62.8836 94.5089 73.7795 96.3025Z" fill="white" stroke="#263238" stroke-width="0.435644" stroke-linecap="round" stroke-linejoin="round"/>
<path d="M94.3273 88.6463C94.3273 88.6463 88.8233 90.8546 80.7523 90.1988L77.1203 91.9756" stroke="#263238" stroke-width="0.435644" stroke-linecap="round" stroke-linejoin="round"/>
<path d="M73.4771 91.6841L73.2136 89.2964C73.2136 89.2964 67.2669 87.4356 65.4229 83.8989" stroke="#263238" stroke-width="0.435644" stroke-linecap="round" stroke-linejoin="round"/>
<path d="M74.9387 79.3141C83.8168 81.6345 87.9925 70.2454 87.9925 70.2454C87.9925 70.2454 80.8855 68.1268 75.3366 70.9404C77.0909 75.2562 75.8747 78.5182 74.9387 79.3141Z" fill="#263238"/>
<path d="M97.4827 53.6493C99.6462 41.5203 97.2417 26.9644 78.7848 28.1695C65.5965 29.0326 65.703 43.4933 66.5774 47.7866C68.0459 55.0729 65.944 57.9034 68.2028 64.0015C69.8282 68.3789 73.6059 73.2832 78.0506 75.116C80.7858 76.237 91.8498 68.4798 92.6681 64.9263" fill="white"/>
<path d="M97.4827 53.6493C99.6462 41.5203 97.2417 26.9644 78.7848 28.1695C65.5965 29.0326 65.703 43.4933 66.5774 47.7866C68.0459 55.0729 65.944 57.9034 68.2028 64.0015C69.8282 68.3789 73.6059 73.2832 78.0506 75.116C80.7858 76.237 91.8498 68.4798 92.6681 64.9263" stroke="#263238" stroke-width="0.435644" stroke-linecap="round" stroke-linejoin="round"/>
<path d="M74.2899 50.0734C74.1778 51.4298 74.0209 54.8039 71.1344 57.2925C69.2679 58.9011 73.5501 60.5489 73.5501 60.5489" stroke="#263238" stroke-width="0.435644" stroke-linecap="round" stroke-linejoin="round"/>
<path d="M71.2234 45.2587C71.2234 45.2587 67.1487 43.2746 64.3967 46.5478" stroke="#263238" stroke-width="0.435644" stroke-linecap="round" stroke-linejoin="round"/>
<path d="M78.0733 45.001C80.9372 44.1701 83.9934 44.29 86.7833 45.3429" stroke="#263238" stroke-width="0.435644" stroke-linecap="round" stroke-linejoin="round"/>
<path d="M82.2872 50.7292C82.4161 51.895 83.2008 52.7693 84.0471 52.6797C84.8935 52.59 85.4764 51.5587 85.3475 50.3985C85.2186 49.2383 84.4339 48.3527 83.5875 48.4424C82.7412 48.532 82.1639 49.5577 82.2872 50.7292Z" fill="#263238"/>
<path d="M73.751 64.3827C76.9912 63.9342 80.0983 62.7991 82.8645 61.0534C82.8645 61.0534 83.2457 66.1426 78.9804 67.2187C75.7127 68.0314 74.446 64.2986 74.446 64.2986" stroke="#263238" stroke-width="0.435644" stroke-linecap="round" stroke-linejoin="round"/>
<path d="M85.7345 32.7879C85.7345 32.7879 84.563 47.1644 97.2525 52.405L103.194 38.5722L94.2259 28.6179L80.6788 24.6945C60.4172 25.9556 51.7296 38.5385 62.9394 72.0445C62.9394 72.0445 59.795 32.1377 85.7345 32.7879Z" fill="#263238"/>
<path d="M94.4783 52.9936C94.3045 51.3793 98.4017 47.2654 99.7693 49.9053C102.129 54.3892 100.414 58.3126 97.9757 59.8651C96.8828 60.5546 95.4983 61.8437 94.5287 60.6274" fill="white"/>
<path d="M94.4783 52.9936C94.3045 51.3793 98.4017 47.2654 99.7693 49.9053C102.129 54.3892 100.414 58.3126 97.9757 59.8651C96.8828 60.5546 95.4983 61.8437 94.5287 60.6274" stroke="#263238" stroke-width="0.435644" stroke-linecap="round" stroke-linejoin="round"/>
<path d="M69.9335 51.2617C70.0624 52.4331 70.8527 53.3075 71.6935 53.2178C72.5342 53.1281 73.1227 52.0968 72.9938 50.931C72.8649 49.7652 72.0802 48.8852 71.2395 48.9805C70.3987 49.0758 69.8102 50.0903 69.9335 51.2617Z" fill="#263238"/>
<g opacity="0.2">
<path d="M61.1462 48.9017C60.9948 49.8769 60.8884 50.8634 60.8323 51.8443" stroke="white" stroke-width="0.435644" stroke-linecap="round" stroke-linejoin="round"/>
<path d="M83.6336 30.1645C73.3766 29.8955 63.8483 36.4308 61.5783 46.6933" stroke="white" stroke-width="0.435644" stroke-linecap="round" stroke-linejoin="round"/>
<path d="M81.7998 27.2444C81.7998 27.2444 67.0141 23.7694 61.4709 33.578" stroke="white" stroke-width="0.435644" stroke-linecap="round" stroke-linejoin="round"/>
<path d="M93.7942 44.3338C94.6873 45.6045 95.7617 46.7375 96.9833 47.6967" stroke="white" stroke-width="0.435644" stroke-linecap="round" stroke-linejoin="round"/>
<path d="M87.9319 29.1613C88.6939 33.8608 90.2903 38.386 92.6457 42.5234" stroke="white" stroke-width="0.435644" stroke-linecap="round" stroke-linejoin="round"/>
<path d="M102.79 73.6417C102.525 74.8187 102.217 75.9845 101.865 77.1391" stroke="white" stroke-width="0.435644" stroke-linecap="round" stroke-linejoin="round"/>
<path d="M101.933 54.1031C104.332 59.4277 104.175 66.0527 103.183 71.6575" stroke="white" stroke-width="0.435644" stroke-linecap="round" stroke-linejoin="round"/>
<path d="M100.172 63.3792C100.29 65.396 99.98 67.4149 99.2623 69.3034C98.5446 71.1919 97.4355 72.9072 96.008 74.3367" stroke="white" stroke-width="0.435644" stroke-linecap="round" stroke-linejoin="round"/>
<path d="M93.3519 30.8764C95.8685 34.2786 97.7349 37.9274 100.638 41.0325C103.704 44.3057 106.776 48.0498 107.364 52.657" stroke="white" stroke-width="0.435644" stroke-linecap="round" stroke-linejoin="round"/>
<path d="M89.8098 27.3621C90.5278 27.837 91.1896 28.3916 91.7827 29.0155" stroke="white" stroke-width="0.435644" stroke-linecap="round" stroke-linejoin="round"/>
</g>
<path d="M140.394 106.262C140.102 106.329 139.805 106.374 139.503 106.419C131.566 107.54 122.688 100.971 119.667 93.0684C117.29 86.8301 119.37 79.7511 120.496 76.7245C120.855 75.7773 121.113 75.2224 121.113 75.2224C125.9 68.3844 153.728 81.7577 154.053 89.1281C154.378 96.4985 148.549 104.474 140.394 106.262Z" fill="#263238" stroke="#263238" stroke-width="0.435644" stroke-linecap="round" stroke-linejoin="round"/>
<path d="M149.098 90.1369C149.098 90.1369 147.518 101.846 139.503 106.43C131.566 107.551 122.688 100.982 119.667 93.0795C117.29 86.8412 119.37 79.7623 120.496 76.7356C129.879 71.3661 149.098 90.1369 149.098 90.1369Z" fill="white"/>
<mask id="mask1_2_125" style="mask-type:luminance" maskUnits="userSpaceOnUse" x="118" y="75" width="32" height="32">
<path d="M149.098 90.1369C149.098 90.1369 147.518 101.846 139.503 106.43C131.566 107.551 122.688 100.982 119.667 93.0795C117.29 86.8412 119.37 79.7623 120.496 76.7356C129.879 71.3661 149.098 90.1369 149.098 90.1369Z" fill="white"/>
</mask>
<g mask="url(#mask1_2_125)">
<path opacity="0.4" d="M149.098 90.1369C149.098 90.1369 147.518 101.846 139.503 106.43C131.566 107.551 122.688 100.982 119.667 93.0795C117.29 86.8412 119.37 79.7623 120.496 76.7356C129.879 71.3661 149.098 90.1369 149.098 90.1369Z" fill="#565ADD"/>
</g>
<path d="M149.098 90.1369C149.098 90.1369 147.518 101.846 139.503 106.43C131.566 107.551 122.688 100.982 119.667 93.0795C117.29 86.8412 119.37 79.7623 120.496 76.7356C129.879 71.3661 149.098 90.1369 149.098 90.1369Z" stroke="#263238" stroke-width="0.435644" stroke-linecap="round" stroke-linejoin="round"/>
<path d="M116.287 96.3027C116.287 96.3027 125.322 109.272 135.876 110.354C146.43 111.436 153.173 102.547 153.61 95.8431" stroke="#263238" stroke-width="0.435644" stroke-linecap="round" stroke-linejoin="round"/>
<path d="M111.203 37.7483C111.999 35.5063 117.699 36.2742 119.504 43.2018C121.309 50.1295 128.444 66.9721 128.444 66.9721C128.444 66.9721 156.765 25.2942 161.843 23.6856C166.921 22.077 164.915 29.2905 158.127 39.3232C158.127 39.3232 164.483 38.2023 166.153 39.3232C167.824 40.4442 167.005 47.1701 167.897 49.5353C169.382 53.4868 166.075 54.3219 166.075 54.3219C167.699 54.3568 169.261 54.9507 170.497 56.0034C172.319 57.6849 171.405 64.7582 171.927 66.7536C172.448 68.7489 168.973 70.4304 168.973 70.4304C168.973 70.4304 177.324 75.0039 175.435 76.1249C172.257 78.0474 170.441 76.0801 170.441 76.0801C170.441 76.0801 157.617 92.1941 147.938 95.7813C138.258 99.3684 119.426 85.0927 117.397 77.3412C115.368 69.5896 117.789 70.0548 116.276 57.13C114.762 44.2051 111.203 37.7483 111.203 37.7483Z" fill="white" stroke="#263238" stroke-width="0.435644" stroke-linecap="round" stroke-linejoin="round"/>
<path d="M152.524 12.1448L115.209 21.8715C113.885 22.2166 113.092 23.5697 113.437 24.8936L131.076 92.5646C131.421 93.8885 132.774 94.682 134.098 94.3369L171.413 84.6102C172.737 84.2651 173.531 82.912 173.185 81.5881L155.546 13.9172C155.201 12.5932 153.848 11.7997 152.524 12.1448Z" fill="white" stroke="#263238" stroke-width="0.435644" stroke-linecap="round" stroke-linejoin="round"/>
<path d="M131.146 19.9191C131.175 20.035 131.169 20.1569 131.129 20.2696C131.089 20.3823 131.017 20.4806 130.921 20.5522C130.826 20.6239 130.711 20.6655 130.592 20.672C130.472 20.6785 130.354 20.6496 130.251 20.5888C130.148 20.5279 130.065 20.438 130.013 20.3304C129.962 20.2227 129.943 20.1021 129.959 19.9837C129.976 19.8653 130.027 19.7545 130.107 19.6652C130.186 19.5759 130.29 19.5122 130.406 19.4819C130.483 19.4617 130.564 19.4571 130.643 19.4681C130.722 19.4792 130.798 19.5058 130.867 19.5465C130.935 19.5871 130.996 19.641 131.043 19.7049C131.091 19.7689 131.126 19.8417 131.146 19.9191Z" fill="#565ADD" stroke="#263238" stroke-width="0.435644" stroke-linecap="round" stroke-linejoin="round"/>
<path d="M138.829 17.9125C138.849 17.9854 138.847 18.0624 138.823 18.134C138.798 18.2055 138.754 18.2682 138.694 18.3142C138.634 18.3602 138.562 18.3874 138.486 18.3923C138.411 18.3972 138.336 18.3797 138.271 18.3419C138.205 18.3041 138.153 18.2478 138.119 18.1801C138.086 18.1123 138.074 18.0362 138.084 17.9614C138.094 17.8866 138.126 17.8164 138.176 17.7598C138.226 17.7032 138.291 17.6628 138.364 17.6435C138.412 17.63 138.463 17.6263 138.513 17.6325C138.562 17.6388 138.61 17.655 138.653 17.68C138.697 17.7051 138.735 17.7386 138.765 17.7785C138.795 17.8184 138.817 17.864 138.829 17.9125Z" fill="#565ADD" stroke="#263238" stroke-width="0.435644" stroke-linecap="round" stroke-linejoin="round"/>
<path d="M136.987 18.9044L132.501 20.0604C132.405 20.0852 132.347 20.1832 132.372 20.2792L132.39 20.3499C132.415 20.446 132.513 20.5038 132.609 20.4791L137.095 19.3231C137.191 19.2983 137.248 19.2003 137.224 19.1042L137.205 19.0336C137.181 18.9375 137.083 18.8797 136.987 18.9044Z" fill="#565ADD" stroke="#263238" stroke-width="0.436384" stroke-linecap="round" stroke-linejoin="round"/>
<path d="M154.423 14.6113L171.916 81.7298C172.013 82.1073 171.956 82.508 171.759 82.8441C171.562 83.1803 171.239 83.4245 170.862 83.5233L134.032 93.1189C133.846 93.1679 133.651 93.1797 133.46 93.1535C133.269 93.1274 133.085 93.0638 132.918 92.9665C132.752 92.8691 132.606 92.7399 132.489 92.5863C132.373 92.4326 132.287 92.2574 132.239 92.0708L114.751 24.9523C114.702 24.7657 114.691 24.5713 114.717 24.3801C114.743 24.189 114.806 24.0049 114.904 23.8383C115.001 23.6718 115.13 23.526 115.284 23.4094C115.438 23.2928 115.613 23.2076 115.799 23.1587L123.36 21.197C123.603 21.1332 123.859 21.1452 124.095 21.2314C124.33 21.3175 124.534 21.4738 124.678 21.679L125.238 22.4581C125.382 22.6638 125.585 22.8206 125.82 22.9078C126.056 22.9949 126.312 23.0082 126.555 22.9457L143.157 18.6188C143.4 18.5559 143.617 18.4201 143.781 18.2297C143.944 18.0393 144.045 17.8034 144.07 17.5538L144.166 16.6066C144.193 16.3571 144.295 16.1215 144.458 15.9305C144.62 15.7396 144.837 15.6021 145.079 15.5361L152.646 13.5688C153.02 13.4731 153.416 13.529 153.749 13.7242C154.082 13.9195 154.324 14.2383 154.423 14.6113Z" fill="#565ADD" stroke="#263238" stroke-width="0.435644" stroke-linecap="round" stroke-linejoin="round"/>
<path d="M159.024 70.5202L138.045 75.9962C136.837 76.3118 135.553 76.1349 134.476 75.5043C133.399 74.8736 132.616 73.8409 132.3 72.6333C131.984 71.4255 132.161 70.1418 132.792 69.0645C133.422 67.9872 134.455 67.2044 135.663 66.8883L156.659 61.4179C157.866 61.1023 159.15 61.2793 160.227 61.9099C161.305 62.5405 162.087 63.5732 162.404 64.7808C162.559 65.3796 162.594 66.0031 162.508 66.6157C162.423 67.2282 162.217 67.8178 161.903 68.3509C161.589 68.8839 161.173 69.3498 160.679 69.722C160.185 70.0943 159.623 70.3655 159.024 70.5202Z" fill="#263238"/>
<path d="M108.002 129.932C104.06 119.469 102.983 108.144 104.88 97.1263" stroke="#263238" stroke-width="0.435644" stroke-linecap="round" stroke-linejoin="round"/>
<path d="M92.4606 145.967C92.4606 145.967 79.5693 149.891 78.2746 152.867C76.9799 155.843 84.0532 153.338 84.0532 153.338" stroke="#263238" stroke-width="0.435644" stroke-linecap="round" stroke-linejoin="round"/>
<path d="M100.38 85.1768C100.38 85.1768 88.5199 96.947 80.5834 100.063" stroke="#263238" stroke-width="0.435644" stroke-linecap="round" stroke-linejoin="round"/>
<path d="M61.5163 82.0159C61.5163 82.0159 59.3584 97.889 67.4238 100.882" stroke="#263238" stroke-width="0.435644" stroke-linecap="round" stroke-linejoin="round"/>
<path d="M38.6868 114.064C38.6868 114.064 38.6195 93.2533 42.7559 86.8245" stroke="#263238" stroke-width="0.435644" stroke-linecap="round" stroke-linejoin="round"/>
<path d="M37.157 92.8665C37.157 92.8665 35.9968 105.786 38.603 110.001" stroke="#263238" stroke-width="0.435644" stroke-linecap="round" stroke-linejoin="round"/>
<path d="M28.6538 117.13C28.6538 117.13 19.6299 114.019 17.7635 117.876C15.8971 121.732 23.1442 118.313 23.1442 118.313" stroke="#263238" stroke-width="0.435644" stroke-linecap="round" stroke-linejoin="round"/>
<path d="M34.0803 130.621C34.0803 130.621 25.219 135.61 24.765 138.468" stroke="#263238" stroke-width="0.435644" stroke-linecap="round" stroke-linejoin="round"/>
<path d="M48.5461 116.817C48.5461 116.817 65.5009 142.442 74.8891 140.088" stroke="#263238" stroke-width="0.435644" stroke-linecap="round" stroke-linejoin="round"/>
<path d="M60.1369 152.761C60.1369 152.761 46.8421 162.507 44.9084 161.678" stroke="#263238" stroke-width="0.435644" stroke-linecap="round" stroke-linejoin="round"/>
<path opacity="0.2" d="M153.256 111.172C154.153 110.438 154.741 109.95 154.938 109.799C154.736 109.973 154.153 110.477 153.256 111.172Z" fill="black"/>
<g clip-path="url(#clip0_2_125)">
<path d="M139.937 58.943C139.498 58.9265 139.058 58.9207 138.62 58.8916C137.102 58.7911 135.618 58.5122 134.185 57.9842C133.421 57.7031 132.689 57.3566 131.997 56.9229C130.675 56.094 129.619 54.9948 128.802 53.6542C128.167 52.6129 127.72 51.4911 127.425 50.3043C127.265 49.6583 127.152 49.001 127.087 48.3379C127.017 47.6181 126.992 46.8975 127.024 46.1743C127.171 42.9069 128.212 39.9572 130.071 37.3013C131.126 35.7938 132.404 34.5057 133.866 33.4062C135.556 32.1347 137.403 31.1774 139.408 30.5344C140.224 30.2757 141.057 30.0776 141.9 29.9418C142.107 29.9082 142.315 29.8775 142.523 29.8511C142.617 29.8392 142.712 29.8348 142.807 29.838C142.921 29.8416 142.964 29.9136 142.928 30.0256C142.902 30.1096 142.85 30.1782 142.797 30.246C142.587 30.5135 142.323 30.7316 142.023 30.8851C141.751 31.0258 141.456 31.1162 141.153 31.1522C139.71 31.3251 138.319 31.694 136.993 32.3066C136.601 32.4875 136.227 32.7024 135.852 32.9157C134.562 33.6488 133.471 34.6241 132.517 35.7633C131.257 37.2688 130.346 38.9754 129.732 40.8485C129.447 41.7172 129.237 42.6093 129.103 43.5147C128.957 44.4911 128.906 45.4798 128.952 46.4663C129.024 48.0345 129.334 49.5507 129.939 50.999C130.285 51.8264 130.718 52.6029 131.251 53.3211C132.143 54.5243 133.254 55.4573 134.583 56.1202C135.372 56.5117 136.193 56.8102 137.04 57.0387C137.721 57.2223 138.412 57.3627 139.11 57.4593C139.575 57.5237 140.043 57.5679 140.511 57.5966C141.086 57.632 141.66 57.6328 142.234 57.616C142.704 57.6022 143.172 57.5613 143.638 57.5061C144.725 57.3767 145.798 57.1501 146.846 56.8288C147.84 56.5253 148.786 56.1048 149.699 55.6041C149.958 55.461 150.207 55.2999 150.445 55.122C150.714 54.9207 150.991 54.7274 151.255 54.5184C152.451 53.5711 153.431 52.4255 154.228 51.1161C155.102 49.6803 155.707 48.1339 156.058 46.4831C156.179 45.9115 156.266 45.3329 156.317 44.7505C156.376 44.1017 156.386 43.4494 156.347 42.799C156.194 40.2138 155.31 37.9199 153.695 35.9175C152.619 34.5893 151.331 33.5264 149.823 32.7436C148.924 32.2767 147.979 31.9384 146.988 31.7407C146.364 31.6163 145.734 31.5444 145.097 31.5532C144.868 31.5564 144.638 31.5781 144.409 31.5905C144.324 31.5951 144.239 31.5976 144.154 31.6003C144.129 31.6014 144.104 31.6007 144.079 31.5981C143.954 31.5828 143.91 31.5177 143.953 31.3987C143.975 31.3377 144.008 31.2791 144.044 31.2245C144.133 31.088 144.246 30.9721 144.369 30.8678C144.794 30.5099 145.278 30.3065 145.831 30.2667C146.379 30.2277 146.93 30.2313 147.478 30.2775C148.678 30.3775 149.829 30.6801 150.933 31.1656C154.112 32.562 156.579 35.2949 157.68 38.6361C157.925 39.3791 158.097 40.1446 158.196 40.9217C158.288 41.6436 158.318 42.3722 158.287 43.0994C158.223 44.6202 157.926 46.0941 157.411 47.5227C156.693 49.5165 155.615 51.2858 154.195 52.8394C152.911 54.2441 151.433 55.3964 149.791 56.3332C148.001 57.3551 146.1 58.0784 144.089 58.5031C143.453 58.6378 142.812 58.7405 142.166 58.8111C141.439 58.8908 140.68 58.9339 139.937 58.943Z" fill="white"/>
<path d="M141.537 44.4371C141.481 44.4569 141.433 44.4722 141.387 44.4899C140.1 44.9807 138.859 45.5866 137.677 46.3004C137.539 46.3834 137.539 46.3579 137.517 46.547C137.453 47.1026 137.383 47.6573 137.321 48.2131C137.281 48.5717 137.251 48.9317 137.22 49.2913C137.182 49.727 137.146 50.1628 137.112 50.5988C137.086 50.9385 137.064 51.2785 137.041 51.6185C137.013 52.0193 136.987 52.4202 136.961 52.8211C136.949 53.0038 136.934 53.1863 136.926 53.3692C136.919 53.5586 136.827 53.6806 136.661 53.7573C136.477 53.8419 136.287 53.8995 136.09 53.9388C135.874 53.9821 135.658 54.0191 135.437 54.0251C135.262 54.03 135.087 54.0209 134.919 53.9641C134.752 53.9076 134.709 53.8344 134.724 53.6553C134.75 53.336 134.773 53.0164 134.796 52.6969C134.834 52.1491 134.871 51.6011 134.91 51.0533C134.933 50.744 134.955 50.4346 134.981 50.1255C135.015 49.7405 135.05 49.3557 135.088 48.9712C135.126 48.5868 135.169 48.2028 135.209 47.8185C135.211 47.804 135.207 47.789 135.204 47.7635C135.164 47.7529 135.123 47.739 135.08 47.731C134.759 47.671 134.473 47.5336 134.218 47.3274C134.112 47.2427 134.02 47.1402 133.947 47.0242C133.891 46.9335 133.851 46.8335 133.828 46.7287C133.796 46.5824 133.832 46.4571 133.923 46.3445C133.993 46.2571 134.08 46.1886 134.173 46.1273C134.591 45.85 135.01 45.5731 135.429 45.2964C135.579 45.198 135.579 45.1995 135.609 45.0264C135.932 43.2013 136.371 41.4081 137.019 39.6721C137.368 38.7348 137.759 37.8159 138.244 36.9415C138.33 36.7866 138.418 36.6322 138.516 36.4851C138.943 35.8442 139.535 35.4505 140.273 35.2791C140.572 35.2099 140.874 35.1737 141.18 35.1875C141.37 35.1959 141.558 35.217 141.742 35.2695C142.083 35.3669 142.304 35.5894 142.406 35.932C142.443 36.0586 142.47 36.1881 142.487 36.3191C142.524 36.6014 142.552 36.8847 142.585 37.1675C142.628 37.5361 142.667 37.9052 142.716 38.273C142.777 38.7314 142.841 39.1897 142.913 39.6465C143.012 40.274 143.114 40.9011 143.226 41.5263C143.399 42.4967 143.6 43.4617 143.82 44.4223C144.164 45.9281 144.559 47.4201 145.003 48.8982C145.016 48.942 145.03 48.9855 145.042 49.0295C145.065 49.1123 145.043 49.1831 144.975 49.2315C144.918 49.2718 144.858 49.3121 144.793 49.3351C144.661 49.3818 144.527 49.4267 144.391 49.4542C144.161 49.5011 143.929 49.54 143.697 49.5711C143.508 49.5962 143.318 49.598 143.13 49.5608C143.091 49.5528 143.052 49.5417 143.015 49.5276C142.977 49.514 142.942 49.4923 142.913 49.4642C142.884 49.4361 142.861 49.402 142.846 49.3643C142.828 49.3223 142.813 49.2791 142.801 49.2351C142.657 48.727 142.513 48.2193 142.372 47.7104C142.09 46.6925 141.833 45.6682 141.601 44.6374C141.586 44.5743 141.584 44.5065 141.537 44.4371ZM140.3 36.9979C140.28 37.0293 140.257 37.0604 140.239 37.0948C140.124 37.3259 140.006 37.5557 139.896 37.7892C139.309 39.0347 138.848 40.3283 138.481 41.6568C138.292 42.3419 138.127 43.0331 137.986 43.7306C137.978 43.7692 137.959 43.8083 137.992 43.8559C138.03 43.8397 138.072 43.8241 138.112 43.8057C138.298 43.7194 138.483 43.6308 138.67 43.5462C139.442 43.1967 140.228 42.8862 141.032 42.6235C141.073 42.61 141.113 42.5915 141.146 42.5786C141.149 42.5693 141.152 42.5599 141.154 42.5503C141.155 42.5402 141.155 42.53 141.155 42.5198C141.155 42.5096 141.154 42.4994 141.152 42.4893C141.106 42.2446 141.059 42.0004 141.015 41.7554C140.776 40.42 140.582 39.0774 140.417 37.7304C140.402 37.6043 140.388 37.478 140.373 37.3518C140.361 37.2508 140.35 37.1498 140.338 37.0489C140.336 37.0389 140.334 37.0291 140.33 37.0196C140.329 37.0151 140.326 37.0111 140.322 37.0082C140.315 37.0041 140.307 37.0007 140.3 36.9979Z" fill="white"/>
<path d="M149.623 39.8802C149.697 39.8525 149.748 39.8345 149.799 39.8143C150.362 39.5901 150.934 39.3943 151.516 39.2267C152.141 39.0459 152.668 39.2209 153.114 39.6826C153.277 39.8519 153.361 40.0615 153.355 40.3038C153.35 40.4776 153.273 40.6068 153.121 40.6834C153.041 40.7238 152.957 40.7559 152.87 40.7792C152.053 41.0004 151.263 41.3 150.488 41.6414C150.391 41.6838 150.296 41.7273 150.201 41.7721C150.17 41.7866 150.141 41.8064 150.115 41.8215C150.101 41.8934 150.132 41.9493 150.149 42.0064C150.399 42.8536 150.692 43.6866 151.029 44.5021C151.122 44.7269 151.222 44.9486 151.318 45.1722C151.348 45.242 151.38 45.3116 151.4 45.3845C151.441 45.5295 151.378 45.6255 151.23 45.642C151.157 45.65 151.08 45.6435 151.007 45.6305C150.758 45.5862 150.531 45.4809 150.321 45.3397C149.961 45.098 149.698 44.7717 149.52 44.3732C149.291 43.8594 149.08 43.3379 148.887 42.8089C148.854 42.7188 148.82 42.6293 148.789 42.547C148.733 42.5255 148.702 42.5581 148.669 42.5783C148.359 42.7732 148.05 42.969 147.741 43.1658C147.656 43.2193 147.573 43.2759 147.487 43.3273C147.294 43.4426 147.084 43.4792 146.865 43.4444C146.432 43.3758 146.077 43.1657 145.814 42.8047C145.73 42.6895 145.667 42.5627 145.637 42.4209C145.599 42.2396 145.646 42.0891 145.793 41.9753C145.825 41.9507 145.858 41.9278 145.891 41.9051C146.569 41.4374 147.275 41.0126 148.004 40.6332C148.049 40.6104 148.092 40.5856 148.136 40.5605C148.144 40.556 148.148 40.5457 148.161 40.5309C148.151 40.4877 148.143 40.4384 148.13 40.3902C147.904 39.5304 147.724 38.6605 147.582 37.7823C147.574 37.7372 147.57 37.6916 147.57 37.6459C147.57 37.553 147.607 37.4996 147.696 37.4852C147.764 37.4743 147.836 37.4791 147.905 37.4833C147.944 37.4855 147.984 37.4974 148.021 37.5103C148.38 37.6327 148.714 37.8002 148.993 38.0669C149.04 38.112 149.084 38.1609 149.128 38.2095C149.284 38.3824 149.381 38.5855 149.423 38.8163C149.473 39.0962 149.523 39.3763 149.574 39.656C149.588 39.725 149.604 39.7933 149.623 39.8802Z" fill="white"/>
</g>
<path d="M138.108 70.0768C138.056 69.9355 137.965 69.8387 137.835 69.7865C137.705 69.7343 137.547 69.7323 137.36 69.7805C137.233 69.8132 137.13 69.8588 137.052 69.9174C136.974 69.9747 136.919 70.0405 136.888 70.1149C136.859 70.189 136.854 70.2656 136.875 70.3447C136.889 70.4113 136.918 70.4652 136.96 70.5067C137.004 70.5478 137.058 70.5794 137.121 70.6014C137.184 70.6223 137.254 70.6368 137.332 70.645C137.409 70.6519 137.49 70.654 137.575 70.6513L137.926 70.6452C138.096 70.6398 138.256 70.6497 138.406 70.6751C138.555 70.7004 138.691 70.7442 138.811 70.8063C138.932 70.8685 139.035 70.952 139.119 71.0568C139.205 71.1613 139.268 71.2901 139.309 71.4432C139.366 71.6689 139.359 71.8791 139.288 72.0739C139.217 72.2672 139.087 72.4369 138.897 72.583C138.708 72.7275 138.464 72.8384 138.164 72.9157C137.867 72.9923 137.596 73.0134 137.352 72.9792C137.109 72.9446 136.903 72.8539 136.733 72.7071C136.565 72.5588 136.443 72.3529 136.369 72.0895L137.123 71.8954C137.163 72.0167 137.225 72.1107 137.308 72.1773C137.393 72.2425 137.493 72.2825 137.61 72.2972C137.727 72.3105 137.853 72.2998 137.987 72.2652C138.119 72.2313 138.228 72.1826 138.316 72.1192C138.404 72.0555 138.466 71.9825 138.503 71.9003C138.539 71.8181 138.546 71.7326 138.523 71.6439C138.502 71.5612 138.459 71.498 138.395 71.4543C138.333 71.4103 138.25 71.3806 138.146 71.3651C138.044 71.3493 137.921 71.3426 137.778 71.3448L137.352 71.3474C137.022 71.3519 136.746 71.297 136.525 71.1827C136.304 71.0684 136.159 70.875 136.09 70.6026C136.031 70.3799 136.04 70.1698 136.117 69.9723C136.195 69.7745 136.328 69.6016 136.515 69.4537C136.701 69.3059 136.929 69.1973 137.198 69.1281C137.471 69.0577 137.722 69.043 137.95 69.084C138.179 69.1247 138.372 69.2137 138.528 69.3509C138.685 69.4882 138.794 69.6661 138.854 69.8846L138.108 70.0768ZM141.43 68.0914L142.208 67.8907L142.825 70.2823C142.894 70.5509 142.89 70.8024 142.814 71.0368C142.739 71.271 142.601 71.4739 142.401 71.6456C142.201 71.816 141.949 71.9405 141.644 72.019C141.338 72.0977 141.057 72.1109 140.799 72.0584C140.541 72.0047 140.322 71.8935 140.143 71.7249C139.965 71.5562 139.84 71.3376 139.771 71.0691L139.155 68.6775L139.934 68.4769L140.533 70.8019C140.569 70.9422 140.632 71.059 140.721 71.1523C140.811 71.2454 140.921 71.3085 141.05 71.3418C141.178 71.3751 141.318 71.3725 141.467 71.3339C141.619 71.2949 141.742 71.23 141.837 71.1389C141.934 71.0475 141.999 70.9394 142.032 70.8146C142.066 70.6894 142.065 70.5567 142.029 70.4164L141.43 68.0914ZM143.798 71.4084L142.849 67.7257L144.323 67.3457C144.594 67.2759 144.831 67.2579 145.032 67.2915C145.234 67.3252 145.399 67.4016 145.527 67.5208C145.654 67.6388 145.742 67.7901 145.79 67.9747C145.827 68.1186 145.83 68.2525 145.801 68.3764C145.771 68.4991 145.715 68.6082 145.632 68.7037C145.55 68.7976 145.449 68.8755 145.328 68.9374L145.337 68.9733C145.479 68.9432 145.621 68.9489 145.762 68.9905C145.904 69.0318 146.031 69.1085 146.141 69.2206C146.252 69.3315 146.33 69.4775 146.377 69.6585C146.427 69.8539 146.424 70.0409 146.366 70.2193C146.309 70.3963 146.198 70.5534 146.033 70.6906C145.868 70.8278 145.647 70.9319 145.371 71.003L143.798 71.4084ZM144.412 70.5712L145.047 70.4076C145.264 70.3517 145.412 70.2696 145.49 70.1612C145.568 70.0517 145.589 69.9274 145.553 69.7883C145.527 69.6864 145.479 69.6028 145.41 69.5376C145.341 69.4723 145.255 69.4293 145.152 69.4084C145.051 69.3872 144.938 69.3927 144.813 69.4248L144.16 69.593L144.412 70.5712ZM144.025 69.0661L144.602 68.9174C144.709 68.8899 144.798 68.8469 144.872 68.7884C144.946 68.7284 144.998 68.6575 145.028 68.5756C145.059 68.4934 145.062 68.4038 145.037 68.3067C145.003 68.1736 144.928 68.0785 144.812 68.0214C144.698 67.964 144.554 67.9575 144.381 68.002L143.79 68.1544L144.025 69.0661ZM147.671 66.4831L148.441 66.2848L149.103 68.8526C149.164 69.09 149.164 69.3099 149.102 69.5124C149.042 69.7146 148.929 69.8874 148.766 70.0306C148.602 70.1738 148.395 70.2775 148.146 70.3417C147.924 70.3989 147.713 70.4118 147.512 70.3805C147.311 70.3477 147.138 70.2646 146.991 70.1312C146.844 69.9965 146.739 69.8068 146.677 69.5619L147.452 69.3622C147.48 69.4587 147.521 69.5369 147.576 69.5968C147.632 69.6553 147.698 69.6946 147.773 69.7148C147.85 69.7334 147.934 69.731 148.025 69.7076C148.121 69.6829 148.196 69.6416 148.252 69.5839C148.308 69.5246 148.343 69.4503 148.357 69.3611C148.371 69.2718 148.363 69.1684 148.333 69.0509L147.671 66.4831ZM150.034 69.8016L149.085 66.1189L151.566 65.4795L151.732 66.1215L150.029 66.5602L150.255 67.4378L151.83 67.0319L151.995 67.6738L150.42 68.0797L150.647 68.959L152.357 68.5184L152.522 69.1604L150.034 69.8016ZM155.767 65.772L154.979 65.975C154.939 65.8768 154.886 65.7939 154.821 65.7262C154.756 65.6573 154.681 65.6036 154.597 65.5652C154.513 65.5268 154.422 65.5043 154.323 65.4978C154.225 65.491 154.124 65.5012 154.018 65.5284C153.828 65.5775 153.674 65.6676 153.557 65.7988C153.44 65.9287 153.365 66.0937 153.334 66.2936C153.302 66.4923 153.319 66.7193 153.384 66.9746C153.452 67.2372 153.548 67.4477 153.672 67.6062C153.797 67.7645 153.942 67.8709 154.107 67.9256C154.272 67.9802 154.447 67.9836 154.633 67.9358C154.737 67.9089 154.83 67.8702 154.912 67.8198C154.995 67.7691 155.064 67.7084 155.12 67.6377C155.176 67.5658 155.216 67.4857 155.242 67.3972C155.269 67.3084 155.279 67.2126 155.272 67.1097L156.06 66.9103C156.083 67.0846 156.074 67.2608 156.033 67.4388C155.993 67.6153 155.921 67.783 155.816 67.9416C155.712 68.0988 155.575 68.2376 155.405 68.3581C155.237 68.477 155.034 68.5669 154.798 68.6277C154.469 68.7123 154.157 68.7137 153.859 68.6318C153.563 68.5495 153.304 68.3869 153.082 68.1438C152.86 67.9003 152.698 67.5784 152.595 67.178C152.491 66.7764 152.479 66.4153 152.557 66.0947C152.636 65.774 152.786 65.5066 153.007 65.2925C153.227 65.0771 153.499 64.9277 153.823 64.8443C154.036 64.7893 154.242 64.7683 154.44 64.7813C154.638 64.794 154.823 64.8396 154.995 64.9183C155.165 64.9957 155.316 65.1057 155.448 65.2483C155.58 65.3906 155.687 65.5651 155.767 65.772ZM156.018 65.017L155.853 64.375L158.877 63.5957L159.043 64.2376L157.915 64.5281L158.699 67.5689L157.929 67.7672L157.146 64.7264L156.018 65.017Z" fill="white"/>
<path fill-rule="evenodd" clip-rule="evenodd" d="M99.895 7.45943C98.2079 8.13457 97.388 10.05 98.0634 11.7377C98.7359 13.4257 100.653 14.2468 102.34 13.5717C104.027 12.8969 104.85 10.9814 104.175 9.29344C103.499 7.60573 101.585 6.78458 99.895 7.45943ZM97.913 11.7976C97.2051 10.0273 98.0664 8.01807 99.8361 7.30989C101.606 6.60201 103.617 7.46327 104.325 9.23386C105.033 11.0042 104.172 13.0134 102.399 13.7212C100.629 14.4294 98.6209 13.5682 97.913 11.7976Z" fill="#AEAEAE"/>
<path fill-rule="evenodd" clip-rule="evenodd" d="M103.597 5.74989C103.157 6.08083 102.618 6.61616 102.031 7.30428C102.004 7.33791 101.951 7.34204 101.919 7.31343C101.883 7.28452 101.88 7.23349 101.91 7.19987C102.5 6.50762 103.048 5.96255 103.5 5.62159C103.724 5.4514 103.93 5.329 104.107 5.26588C104.281 5.20364 104.446 5.19391 104.576 5.27826C104.673 5.34227 104.727 5.44816 104.753 5.57528C104.78 5.70181 104.78 5.85725 104.756 6.03452C104.709 6.38934 104.57 6.85006 104.355 7.38362C103.927 8.45223 103.193 9.82788 102.249 11.2593C101.305 12.6901 100.332 13.9091 99.5177 14.7235C99.1106 15.1299 98.7419 15.4387 98.4352 15.6219C98.2818 15.7133 98.1402 15.7759 98.0134 15.8015C97.8836 15.8275 97.7656 15.818 97.6683 15.754C97.5415 15.6697 97.4854 15.5137 97.4736 15.3278C97.4618 15.14 97.4913 14.9028 97.5592 14.6285C97.6949 14.079 97.9809 13.3605 98.385 12.5464C98.4057 12.5066 98.4529 12.4901 98.4912 12.5099C98.5325 12.5296 98.5472 12.578 98.5295 12.6178C98.1284 13.4272 97.8482 14.1336 97.7155 14.6671C97.6506 14.9341 97.6241 15.1532 97.6329 15.3175C97.6447 15.4842 97.6919 15.5768 97.7568 15.6195C97.8069 15.6523 97.8777 15.6647 97.9809 15.6437C98.0812 15.6231 98.2081 15.57 98.3526 15.4836C98.6446 15.3104 99.0015 15.0122 99.4026 14.6096C100.208 13.805 101.175 12.5951 102.113 11.1708C103.054 9.7456 103.783 8.37968 104.207 7.32405C104.417 6.79549 104.55 6.34894 104.597 6.01328C104.617 5.84516 104.617 5.70978 104.597 5.60772C104.576 5.50567 104.535 5.44521 104.488 5.41247C104.423 5.3697 104.317 5.36203 104.16 5.41778C104.007 5.47293 103.815 5.58413 103.597 5.74989Z" fill="#AEAEAE"/>
<path fill-rule="evenodd" clip-rule="evenodd" d="M95.4114 9.57452C95.3288 9.63676 95.2904 9.6981 95.2816 9.7565V9.7568C95.2698 9.83054 95.3052 9.92345 95.4114 10.037C95.5176 10.1491 95.6857 10.2691 95.9128 10.3933C96.3641 10.6408 97.0277 10.8944 97.8447 11.1295C97.886 11.1419 97.9125 11.1864 97.8978 11.2292C97.886 11.272 97.8418 11.2967 97.8005 11.2844C96.9776 11.0475 96.2992 10.79 95.8331 10.5343C95.6031 10.4069 95.4173 10.2771 95.2934 10.1476C95.1725 10.0196 95.1017 9.87862 95.1223 9.73291C95.14 9.61788 95.2108 9.52261 95.317 9.44533C95.4202 9.36805 95.5618 9.30375 95.7329 9.25007C96.0721 9.14271 96.5499 9.0734 97.1221 9.04154C98.2724 8.97813 99.8297 9.06484 101.526 9.31555C103.222 9.56656 104.738 9.93495 105.82 10.3284C106.36 10.5251 106.796 10.7295 107.091 10.9313C107.239 11.0319 107.357 11.1345 107.434 11.2383C107.51 11.3425 107.552 11.4548 107.534 11.5699C107.51 11.7285 107.383 11.8495 107.206 11.9406C107.027 12.0329 106.776 12.1052 106.475 12.1589C105.87 12.2668 105.03 12.3037 104.048 12.2665C104.003 12.2648 103.968 12.2273 103.971 12.1831C103.971 12.1385 104.009 12.1037 104.053 12.1055C105.03 12.1424 105.859 12.1052 106.446 12.0005C106.743 11.948 106.973 11.8793 107.133 11.7973C107.292 11.7141 107.363 11.6271 107.375 11.5463C107.383 11.4876 107.366 11.4177 107.304 11.3342C107.242 11.2504 107.142 11.1596 107 11.0643C106.72 10.8735 106.298 10.6747 105.764 10.4797C104.696 10.091 103.189 9.72495 101.502 9.47483C99.815 9.225 98.2665 9.13947 97.1339 9.20229C96.5646 9.23385 96.1016 9.30228 95.7801 9.40374C95.6178 9.45447 95.4969 9.51229 95.4114 9.57452Z" fill="#AEAEAE"/>
<path fill-rule="evenodd" clip-rule="evenodd" d="M97.069 4.58423C96.9658 4.55208 96.9009 4.56093 96.8596 4.58689C96.8301 4.60694 96.8035 4.64381 96.7859 4.709C96.7682 4.77507 96.7622 4.86414 96.7711 4.97711C96.7888 5.20363 96.8625 5.5089 96.9893 5.88054C97.243 6.62264 97.7061 7.61102 98.3225 8.72505C98.3432 8.76398 98.3284 8.81295 98.2901 8.83448C98.2518 8.85601 98.2016 8.84185 98.181 8.80292C97.5616 7.68506 97.0955 6.68724 96.836 5.93275C96.7062 5.55639 96.6295 5.23607 96.6089 4.98949C96.6 4.8665 96.6059 4.75737 96.6295 4.66741C96.6531 4.57656 96.6974 4.49958 96.774 4.4515C96.8714 4.38868 96.9923 4.39163 97.1162 4.43027C97.243 4.4692 97.3875 4.54795 97.5468 4.65826C97.8624 4.87977 98.2488 5.2402 98.6824 5.70829C99.5466 6.64624 100.6 8.02837 101.638 9.6332C102.676 11.2383 103.508 12.7653 104.009 13.9374C104.26 14.5229 104.431 15.0234 104.505 15.4027C104.54 15.5918 104.552 15.7558 104.537 15.8871C104.519 16.0171 104.472 16.1295 104.375 16.1923C104.248 16.2752 104.077 16.2448 103.903 16.1637C103.723 16.0805 103.511 15.9313 103.275 15.729C102.8 15.3234 102.216 14.6907 101.579 13.8967C101.549 13.8619 101.555 13.8112 101.591 13.7835C101.626 13.7554 101.676 13.761 101.703 13.7959C102.34 14.5863 102.918 15.2104 103.381 15.6069C103.611 15.8054 103.812 15.9434 103.971 16.0177C104.136 16.0944 104.233 16.0918 104.289 16.0572C104.328 16.0313 104.363 15.9752 104.378 15.867C104.39 15.7596 104.381 15.6145 104.345 15.4328C104.278 15.0706 104.112 14.5822 103.862 14.0008C103.363 12.8393 102.54 11.3206 101.502 9.72081C100.467 8.12129 99.4197 6.74681 98.5644 5.81772C98.1338 5.35258 97.7562 5.00188 97.4554 4.7904C97.302 4.68422 97.1752 4.61609 97.069 4.58423Z" fill="#AEAEAE"/>
<path d="M105.006 6.80458C104.838 7.0606 104.493 7.13139 104.239 6.96238C103.983 6.79337 103.912 6.45035 104.08 6.19433C104.248 5.93831 104.593 5.86723 104.85 6.03653C105.103 6.20554 105.174 6.54857 105.006 6.80458Z" fill="#AEAEAE"/>
<path d="M103.172 15.2892C103.004 15.5452 102.662 15.616 102.405 15.447C102.148 15.2779 102.078 14.9349 102.246 14.6789C102.417 14.4229 102.759 14.3521 103.016 14.5211C103.269 14.6901 103.34 15.0331 103.172 15.2892Z" fill="#AEAEAE"/>
<path d="M100.21 9.53522C100.042 9.79123 99.6999 9.86202 99.4433 9.69302C99.1867 9.52371 99.1159 9.18098 99.284 8.92466C99.4551 8.66865 99.7972 8.59786 100.054 8.76687C100.31 8.93617 100.381 9.2792 100.21 9.53522Z" fill="#AEAEAE"/>
<path fill-rule="evenodd" clip-rule="evenodd" d="M46.3622 9.44781C46.3956 9.42561 46.4351 9.41517 46.4756 9.41778L52.7137 9.84433C52.8035 9.85042 52.8742 9.92093 52.8787 10.0088L53.2695 17.7345C53.2721 17.7932 53.2446 17.8498 53.1952 17.8842L48.615 21.0811C48.5812 21.1046 48.5403 21.1159 48.4989 21.1129L42.8464 20.7107C42.7628 20.705 42.6948 20.6428 42.6832 20.5618L41.5753 12.7805C41.5664 12.7157 41.5953 12.6508 41.6508 12.6138L46.3622 9.44781ZM46.5125 9.76773L41.9421 12.8388L43.0153 20.3751L48.4607 20.7625L52.9098 17.657L52.5319 10.1795L46.5125 9.76773Z" fill="#AEAEAE"/>
<path fill-rule="evenodd" clip-rule="evenodd" d="M47.4257 17.2507C47.4589 17.225 47.4995 17.2121 47.5406 17.2154L53.1082 17.668C53.2043 17.6761 53.2763 17.7673 53.2693 17.8718C53.2619 17.9769 53.1785 18.0551 53.0825 18.0475L47.5781 17.6002L43.1494 21.0776C43.0713 21.1392 42.9626 21.1196 42.9062 21.0346C42.8499 20.9492 42.8678 20.8303 42.946 20.7692L47.4257 17.2507Z" fill="#AEAEAE"/>
<path fill-rule="evenodd" clip-rule="evenodd" d="M46.9256 9.41831C47.0219 9.40698 47.109 9.47245 47.1208 9.56436L48.0691 17.0272C48.0809 17.1187 48.0123 17.2022 47.916 17.2132C47.8197 17.2241 47.7322 17.159 47.7203 17.0671L46.7721 9.60423C46.7607 9.51274 46.8293 9.42923 46.9256 9.41831Z" fill="#AEAEAE"/>
<path fill-rule="evenodd" clip-rule="evenodd" d="M53.2334 9.48911C53.2937 9.56791 53.2771 9.67984 53.1957 9.73894L48.3068 13.2808C48.2691 13.3081 48.2222 13.3202 48.1757 13.3148L41.7363 12.5908C41.6356 12.5797 41.5634 12.491 41.5749 12.393C41.5868 12.2954 41.6779 12.2251 41.7787 12.2367L48.1454 12.9526L52.9763 9.45285C53.0573 9.39375 53.1727 9.41032 53.2334 9.48911Z" fill="#AEAEAE"/>
<path fill-rule="evenodd" clip-rule="evenodd" d="M48.3113 13.3164C48.4539 13.3099 48.5778 13.3814 48.5875 13.4768L49.3695 20.9281C49.3799 21.0235 49.2722 21.1059 49.1296 21.1129C48.9869 21.1194 48.8631 21.0474 48.8533 20.9524L48.0713 13.5007C48.061 13.4057 48.1686 13.3229 48.3113 13.3164Z" fill="#AEAEAE"/>
<path fill-rule="evenodd" clip-rule="evenodd" d="M12.2497 53.8378C12.3695 53.8727 12.4393 54.0027 12.4063 54.1283L10.8592 59.9721L14.2238 63.8304C14.3077 63.9266 14.3014 64.0758 14.2093 64.1637C14.1177 64.2517 13.9752 64.245 13.8913 64.1488L10.4428 60.1941C10.3905 60.1342 10.3716 60.0502 10.3924 59.9718L11.9725 54.0021C12.0055 53.8765 12.1295 53.8029 12.2497 53.8378Z" fill="#AEAEAE"/>
<path fill-rule="evenodd" clip-rule="evenodd" d="M14.3293 56.512C14.4002 56.4129 14.5262 56.3998 14.6105 56.4828L18.1096 59.9134C18.1943 59.9963 18.2055 60.1439 18.1346 60.243C18.0636 60.3421 17.938 60.3553 17.8533 60.2723L14.3542 56.8417C14.2695 56.7587 14.2583 56.6111 14.3293 56.512Z" fill="#AEAEAE"/>
<path fill-rule="evenodd" clip-rule="evenodd" d="M16.7125 56.4422C16.8516 56.4816 16.9182 56.5919 16.8615 56.6886L14.8054 60.209C14.7487 60.3057 14.5904 60.3522 14.452 60.3129C14.313 60.2735 14.2464 60.1632 14.3025 60.0664L16.3592 56.5461C16.4152 56.4493 16.5735 56.4028 16.7125 56.4422Z" fill="#AEAEAE"/>
<path fill-rule="evenodd" clip-rule="evenodd" d="M19.5418 55.2351C19.6439 55.1182 19.838 55.0939 19.9755 55.1807L23.254 57.2525C23.3915 57.3394 23.4202 57.5045 23.3181 57.6214C23.216 57.7382 23.0218 57.7626 22.885 57.6757L19.6058 55.6039C19.4683 55.5171 19.4397 55.352 19.5418 55.2351Z" fill="#AEAEAE"/>
<path fill-rule="evenodd" clip-rule="evenodd" d="M23.2266 53.8376C23.3377 53.8715 23.4029 53.9981 23.3719 54.1204L21.1909 62.7577C21.1599 62.8799 21.0447 62.9515 20.9336 62.9176C20.8224 62.8836 20.7572 62.757 20.7882 62.6348L22.9692 53.9975C23.0003 53.8752 23.1155 53.8036 23.2266 53.8376Z" fill="#AEAEAE"/>
<path fill-rule="evenodd" clip-rule="evenodd" d="M23.45 51.284C23.535 51.2052 23.6647 51.2137 23.74 51.3029L27.2275 55.4417C27.2762 55.4999 27.2917 55.5813 27.2678 55.6547L25.7788 60.1815C25.7421 60.2941 25.6248 60.3539 25.5176 60.3151C25.41 60.2763 25.3533 60.1536 25.3901 60.041L26.8397 55.633L23.4318 51.5883C23.3566 51.4991 23.3645 51.3629 23.45 51.284Z" fill="#AEAEAE"/>
<defs>
<clipPath id="clip0_2_125">
<rect width="31.289" height="29.106" fill="white" transform="translate(127.01 29.837)"/>
</clipPath>
</defs>
</svg>
