<svg width="57" height="48" viewBox="0 0 57 48" fill="none" xmlns="http://www.w3.org/2000/svg">
<path opacity="0.53" d="M5.59023 47.4308C6.14822 47.0279 6.66516 46.6743 7.16115 46.2934C10.9518 43.3782 12.9244 39.4444 13.5286 34.7436C13.5705 34.4199 13.4824 34.2809 13.1645 34.1824C10.4174 33.3326 7.82741 32.1583 5.56753 30.3339C2.18295 27.6026 0.428658 24.0119 0.0776253 19.6902C-0.177353 16.5569 0.177172 13.5045 1.41888 10.6043C4.0525 4.45379 10.1126 -0.430018 18.2894 0.0300383C26.0418 0.466344 31.3903 6.07498 33.0764 12.2272C34.7923 18.4868 34.1094 24.5749 31.0934 30.2697C26.3876 39.1533 19.1198 44.8842 9.41142 47.4114C8.60981 47.6199 7.78462 47.7395 6.98563 47.9594C6.38224 48.1257 6.03994 47.7474 5.59111 47.4316L5.59023 47.4308Z" fill="#D1D1F8"/>
<path opacity="0.53" d="M28.5902 47.4308C29.1482 47.0279 29.6652 46.6743 30.1611 46.2934C33.9518 43.3782 35.9244 39.4444 36.5286 34.7436C36.5705 34.4199 36.4824 34.2809 36.1645 34.1824C33.4174 33.3326 30.8274 32.1583 28.5675 30.3339C25.1829 27.6026 23.4287 24.0119 23.0776 19.6902C22.8226 16.5569 23.1772 13.5045 24.4189 10.6043C27.0525 4.45379 33.1126 -0.430018 41.2894 0.0300383C49.0418 0.466344 54.3903 6.07498 56.0764 12.2272C57.7923 18.4868 57.1094 24.5749 54.0934 30.2697C49.3876 39.1533 42.1198 44.8842 32.4114 47.4114C31.6098 47.6199 30.7846 47.7395 29.9856 47.9594C29.3822 48.1257 29.0399 47.7474 28.5911 47.4316L28.5902 47.4308Z" fill="#D1D1F8"/>
</svg>
