<svg width="17" height="17" viewBox="0 0 17 17" fill="none" xmlns="http://www.w3.org/2000/svg">
<path d="M2.27676 12.4641H1.36246C1.10924 12.4641 0.856023 12.4669 0.60328 12.4641C0.231238 12.4589 0.00301565 12.2402 0.00254411 11.8929C0.00207258 11.5456 0.228413 11.3335 0.607528 11.3307C1.09604 11.3274 1.58455 11.3307 2.07306 11.3307H2.26969V9.05963H2.07872C1.57842 9.05963 1.07813 9.06387 0.577827 9.05963C0.120437 9.05445 -0.136557 8.61758 0.0751624 8.21135C0.186916 7.9974 0.377415 7.92859 0.603752 7.92859H2.26733V5.66038H2.08155C1.57512 5.66038 1.06916 5.66509 0.563206 5.65755C0.138824 5.65143 -0.112038 5.25651 0.0511137 4.86206C0.152494 4.61794 0.350074 4.52746 0.600459 4.52746H2.27676V4.32387C2.27676 3.47559 2.27676 2.62731 2.27676 1.77903C2.27676 0.737061 3.0133 0.000471267 4.05681 0C7.77628 0 11.4956 0 15.2148 0C16.2521 0 16.9901 0.730463 16.992 1.76395C16.9957 4.39739 16.9957 7.03098 16.992 9.66474C16.992 10.0154 16.76 10.2486 16.4205 10.2458C16.081 10.243 15.8622 10.0158 15.8622 9.65672C15.8622 7.04088 15.8622 4.42488 15.8622 1.80872C15.8622 1.33745 15.6566 1.12963 15.1855 1.12963H4.08605C3.61451 1.12963 3.41033 1.33416 3.40986 1.80872C3.40986 6.27004 3.40986 10.7301 3.40986 15.1889C3.40986 15.6602 3.61687 15.8671 4.08935 15.8671H15.1945C15.6542 15.8671 15.8664 15.6555 15.8669 15.1988C15.8669 14.8397 15.8669 14.4801 15.8669 14.1206C15.8669 13.7737 16.0814 13.5503 16.4191 13.5433C16.7567 13.5362 16.9976 13.7704 16.9962 14.1182C16.9962 14.5772 17.0146 15.0395 16.9703 15.4952C16.8887 16.3266 16.2111 16.9449 15.3779 16.9958C15.3194 16.9995 15.2605 17 15.2016 17C11.494 17 7.7865 17 4.07898 17C3.20899 17 2.52763 16.491 2.3343 15.6913C2.29853 15.5306 2.28128 15.3663 2.28289 15.2016C2.27818 14.359 2.28289 13.5164 2.28289 12.6738L2.27676 12.4641Z" fill="#ACACAC"/>
<path d="M11.7514 6.98192C12.2658 7.17757 12.7137 7.51562 13.0429 7.9565C13.395 8.42686 13.5892 8.99644 13.5979 9.58379C13.6068 9.91744 13.3918 10.1568 13.074 10.1766C12.7392 10.1974 12.4917 9.99143 12.4737 9.64929C12.4365 8.93721 12.1437 8.383 11.4774 8.09411C11.2276 7.99309 10.9612 7.93939 10.6918 7.93576C10.0038 7.91456 9.31493 7.92823 8.62649 7.9287C7.54526 7.9287 6.87662 8.55736 6.80306 9.63986C6.77666 10.0334 6.48336 10.2572 6.10047 10.1771C5.82462 10.1191 5.65723 9.89435 5.67609 9.57106C5.74069 8.38535 6.3221 7.54461 7.38918 7.038C7.42596 7.02009 7.46415 7.00501 7.5014 6.98805C7.50564 6.98805 7.50847 6.98003 7.51177 6.97579C6.23533 5.43475 6.91387 3.66656 7.81874 2.9262C8.90893 2.03409 10.4207 2.04446 11.4967 2.96296C12.4346 3.76412 12.9858 5.51581 11.7514 6.98192ZM9.6252 6.79341C9.96135 6.79537 10.2905 6.69754 10.571 6.51231C10.8514 6.32709 11.0705 6.06281 11.2005 5.75298C11.3305 5.44316 11.3656 5.10173 11.3012 4.77198C11.2368 4.44223 11.0759 4.13901 10.8389 3.90075C10.6019 3.66249 10.2995 3.49992 9.96993 3.43365C9.64037 3.36739 9.29856 3.4004 8.9878 3.52851C8.67704 3.65662 8.41133 3.87407 8.22436 4.15328C8.03739 4.43249 7.93758 4.76088 7.93757 5.09685C7.93683 5.31891 7.97992 5.53894 8.06438 5.74434C8.14883 5.94973 8.27299 6.13646 8.42975 6.29383C8.58651 6.4512 8.77279 6.57612 8.97792 6.66144C9.18305 6.74677 9.40301 6.79081 9.6252 6.79106V6.79341Z" fill="#ACACAC"/>
<path d="M9.65018 11.3289C10.7558 11.3289 11.8614 11.3289 12.967 11.3289C13.3324 11.3289 13.5149 11.458 13.5889 11.753C13.6116 11.831 13.6167 11.9129 13.604 11.9931C13.5913 12.0733 13.5611 12.1496 13.5154 12.2168C13.4698 12.2839 13.41 12.3402 13.3401 12.3816C13.2702 12.423 13.1921 12.4484 13.1112 12.4561C13.082 12.4601 13.0526 12.4621 13.0231 12.4623C10.7647 12.4623 8.5064 12.4623 6.24806 12.4623C5.8133 12.4623 5.55253 12.0853 5.69588 11.6894C5.72483 11.5963 5.78045 11.5136 5.85588 11.4517C5.9313 11.3898 6.02321 11.3514 6.12026 11.3411C6.19615 11.3322 6.27256 11.3284 6.34896 11.3298C7.44953 11.3286 8.54993 11.3282 9.65018 11.3289Z" fill="#ACACAC"/>
<path d="M9.63274 13.598C10.3801 13.598 11.127 13.5952 11.8744 13.598C12.2455 13.598 12.4686 13.844 12.4469 14.2069C12.4433 14.3286 12.3976 14.4454 12.3177 14.5373C12.2378 14.6292 12.1285 14.6906 12.0083 14.7112C11.9449 14.7234 11.8805 14.7296 11.8159 14.7295C10.351 14.7295 8.88598 14.7295 7.42077 14.7295C7.04354 14.7295 6.8139 14.5297 6.79457 14.2008C6.77382 13.8407 7.00016 13.5994 7.37314 13.5976C8.12618 13.5957 8.87969 13.598 9.63274 13.598Z" fill="#ACACAC"/>
<path d="M15.865 11.9015C15.8632 11.8278 15.876 11.7545 15.9027 11.6858C15.9295 11.6171 15.9695 11.5543 16.0207 11.5012C16.0718 11.4481 16.133 11.4056 16.2006 11.3763C16.2683 11.347 16.3411 11.3313 16.4148 11.3303C16.4891 11.3293 16.5629 11.343 16.6319 11.3705C16.701 11.398 16.7639 11.4388 16.8172 11.4906C16.8704 11.5424 16.9129 11.6042 16.9423 11.6724C16.9716 11.7407 16.9872 11.814 16.9882 11.8883C16.9892 11.9625 16.9756 12.0363 16.948 12.1053C16.9205 12.1743 16.8797 12.2372 16.8278 12.2904C16.776 12.3436 16.7142 12.3861 16.6459 12.4154C16.5776 12.4447 16.5042 12.4603 16.4299 12.4613C16.2808 12.4618 16.1375 12.4032 16.0316 12.2982C15.9257 12.1932 15.8658 12.0505 15.865 11.9015Z" fill="#ACACAC"/>
</svg>
